<svg width="57" height="44" viewBox="0 0 57 44" fill="none" xmlns="http://www.w3.org/2000/svg">
<path d="M56.0621 27.8924C56.0422 27.7331 56.0322 27.5738 56.0023 27.4144C55.9326 26.9932 55.6838 26.6845 55.3453 26.4405C55.2756 26.3937 55.2159 26.3599 55.196 26.2673C55.186 26.2235 55.1363 26.1826 55.0964 26.1508C54.977 26.0542 54.8574 25.9626 54.7379 25.867L43.4181 16.8969C40.7101 14.7469 38.0021 12.598 35.2842 10.4491L26.6823 3.63089C25.4676 2.66298 24.243 1.69606 23.0184 0.728148C22.9089 0.641513 22.8094 0.544925 22.7099 0.459287C22.6505 0.416479 22.5871 0.379465 22.5206 0.348753C22.2717 0.244195 22.0228 0.247183 21.764 0.279048C21.6047 0.298964 21.4454 0.321863 21.2861 0.35572C20.5494 0.515047 19.972 0.91536 19.5538 1.53773C19.3824 1.78552 19.2764 2.07252 19.2452 2.3722C19.2452 2.42299 19.2452 2.47875 19.2253 2.52357C19.1755 2.62314 19.2054 2.7058 19.2552 2.79144C19.2851 2.83027 19.3049 2.86712 19.3448 2.87907C19.4344 2.90097 19.4841 2.96072 19.5438 3.0135L24.5617 7.37507C26.6126 9.15057 28.6536 10.9241 30.6945 12.6996L35.5032 16.8749C37.2554 18.3965 38.9977 19.9171 40.75 21.4387L46.3053 26.2603C47.3407 27.1625 48.3761 28.0647 49.4215 28.9659C49.4812 29.0236 49.551 29.0804 49.6107 29.1401C49.8795 29.3921 50.1782 29.6102 50.4769 29.8183C50.666 29.9477 50.8453 30.0792 50.9846 30.2654C51.0444 30.3421 51.124 30.3689 51.2036 30.3879C51.2435 30.3968 51.2633 30.3749 51.2733 30.35C51.2932 30.3102 51.3032 30.2684 51.3231 30.2265C51.758 29.0697 52.4935 28.0498 53.4537 27.272C53.6528 27.1037 53.8818 26.9603 54.1108 26.8398C54.2801 26.7542 54.4592 26.6905 54.6483 26.6526C54.718 26.6377 54.7877 26.6427 54.8674 26.6596C55.0764 26.7064 55.2656 26.811 55.415 26.9663C55.4744 27.03 55.5247 27.1018 55.5643 27.1794C55.634 27.3089 55.6739 27.4513 55.6938 27.5977C55.7137 27.8297 55.7037 28.0637 55.6738 28.2967C55.6141 28.7378 55.4548 29.1441 55.2756 29.5434C54.957 30.2395 54.5289 30.8688 54.0411 31.4554C53.4327 32.1904 52.7179 32.8305 51.9204 33.3543C51.5123 33.6182 51.0942 33.8393 50.6263 33.9926C50.4072 34.0663 50.1782 34.1141 49.9392 34.142C49.6505 34.1769 49.3718 34.1161 49.1129 34.0016C49.078 33.9861 49.0472 33.9626 49.0232 33.9329C48.8839 33.7068 48.7943 33.4639 48.8242 33.188C48.8441 33.0466 48.8839 32.9132 48.9536 32.7937C49.093 32.5597 49.2324 32.3287 49.3818 32.1026C49.4515 31.9861 49.551 31.8826 49.6307 31.775C49.7501 31.6376 49.8795 31.5151 50.0288 31.4235C50.208 31.309 50.4072 31.2054 50.5964 31.1058C50.6998 31.0488 50.8167 31.0206 50.9348 31.0242C51.0145 31.0292 51.0643 31.0033 51.0942 30.9306C51.1041 30.9037 51.1239 30.8788 51.1339 30.8529C51.1538 30.8161 51.1539 30.7842 51.1141 30.7553C51.0444 30.6916 50.9746 30.6269 50.9049 30.5651C50.6262 30.3281 50.3474 30.0941 50.0687 29.8551C47.1814 27.3597 44.2843 24.8632 41.3971 22.3667C39.0973 20.3831 36.8074 18.3985 34.5076 16.4139L27.5783 10.4322C25.0595 8.25137 22.5307 6.07058 20.0019 3.8898C19.4941 3.44567 18.9764 3.00354 18.4587 2.55543C18.403 2.50369 18.3368 2.46448 18.2647 2.44044C18.1926 2.41639 18.1161 2.40806 18.0405 2.41602C16.6865 2.49369 15.661 3.24452 15.0637 3.98838C14.8247 4.28015 14.6356 4.5998 14.5062 4.95231C14.3569 5.34664 14.2871 5.75193 14.327 6.17713C14.3469 6.3265 14.3767 6.46392 14.4265 6.60035L14.5759 6.9907C14.6854 7.0843 14.795 7.17989 14.9045 7.27051C18.9366 10.4561 22.9687 13.6396 26.9908 16.8242C27.18 16.9735 27.3792 17.1229 27.5684 17.2723C27.6181 17.3111 27.658 17.328 27.7277 17.2902C27.7614 17.2688 27.7996 17.2555 27.8394 17.2514C27.8791 17.2472 27.9192 17.2523 27.9566 17.2663C28.0123 17.2808 28.0709 17.2794 28.1258 17.2623C28.2154 17.2384 28.2951 17.2484 28.3847 17.2543C28.5241 17.2623 28.6635 17.2733 28.8029 17.2633C29.1513 17.2384 29.4899 17.2434 29.8284 17.3011C29.8714 17.3063 29.915 17.3053 29.9578 17.2982C30.0972 17.2812 30.2365 17.2514 30.3759 17.2434C30.8438 17.2175 31.2819 17.3191 31.7001 17.5411C32.0457 17.7183 32.3533 17.9611 32.606 18.2561C32.7155 18.3786 32.8251 18.5001 32.9246 18.6216C32.9645 18.6594 32.9943 18.7002 33.0341 18.7311C33.2233 18.8705 33.4024 19.0199 33.6016 19.1404C34.1989 19.5019 34.7366 19.942 35.2343 20.4299C36.001 21.1867 36.668 22.0332 37.2654 22.9294C37.355 23.0628 37.4546 23.1913 37.5541 23.3147C37.7632 23.5637 37.9723 23.8077 38.1714 24.0546C38.4701 24.4031 38.8086 24.7069 39.177 24.9648C39.3263 25.0644 39.4756 25.1629 39.615 25.2585C39.9336 25.4637 40.2223 25.6997 40.4911 25.9606C40.7599 26.2225 40.9689 26.5312 41.178 26.8408C41.2576 26.9564 41.3274 27.0739 41.4071 27.1914C41.865 27.9044 42.3828 28.5755 42.9104 29.2407C42.9303 29.2746 42.9701 29.3074 42.99 29.3443C43.1095 29.5414 43.2688 29.6918 43.4579 29.8332C45.1604 31.1775 46.8629 32.5258 48.5653 33.8731L48.6848 33.9687C48.7346 34.0036 48.7744 34.0414 48.7943 34.1042C48.8042 34.1918 48.874 34.2396 48.9436 34.2824C49.1726 34.4158 49.4115 34.4716 49.6704 34.4856C49.9591 34.5015 50.2478 34.4517 50.5166 34.379C50.8352 34.2954 51.1439 34.1719 51.4426 34.0235C52.0067 33.7325 52.5346 33.3762 53.0156 32.962C53.8288 32.278 54.5308 31.4717 55.0964 30.5721C55.4549 30.0055 55.7535 29.409 55.9227 28.7597C56.0123 28.4222 56.0422 28.1782 56.0621 27.8934V27.8924Z" fill="black"/>
<path d="M15.7209 36.5568H16.5274C16.5971 36.5568 16.6667 36.5488 16.7165 36.5926C16.8061 36.6574 16.8957 36.6504 16.9953 36.6434C17.1745 36.6305 17.3536 36.6116 17.5428 36.6016C17.7618 36.5897 17.9809 36.5807 18.1999 36.5777C18.3592 36.5747 18.5285 36.5817 18.6977 36.5857C18.8072 36.5887 18.9267 36.6175 19.0262 36.5916C19.2552 36.5349 19.4942 36.5648 19.7232 36.5219C19.8128 36.505 19.9124 36.4941 20.002 36.4841C20.1912 36.4632 20.3703 36.4333 20.5495 36.4283C21.1469 36.4114 21.7542 36.4014 22.3516 36.3935C22.491 36.3915 22.6303 36.4064 22.7697 36.4114C23.2177 36.4263 23.6558 36.4303 24.1038 36.3556C24.4921 36.2909 24.8803 36.2342 25.2786 36.2401C25.4777 36.2431 25.6768 36.2162 25.8659 36.1983C26.0053 36.1864 26.0751 36.0888 26.0551 35.9553C26.0551 35.9265 26.0352 35.8996 26.0252 35.8727C26.0053 35.8259 26.0253 35.787 26.0551 35.7512C26.085 35.7124 26.1248 35.6765 26.1547 35.6367C26.2144 35.569 26.2642 35.5032 26.314 35.4296C26.4733 35.1926 26.523 34.9476 26.3637 34.6877C26.3438 34.6419 26.3538 34.604 26.3936 34.5732C26.4708 34.505 26.5695 34.4663 26.6724 34.4636C26.7321 34.4636 26.7919 34.4537 26.8417 34.4198C26.9612 34.3372 27.0906 34.3651 27.22 34.384C27.2499 34.388 27.2697 34.4288 27.2498 34.4507C27.2299 34.4806 27.2001 34.5055 27.1802 34.5363C27.1702 34.5672 27.1503 34.603 27.1403 34.6379C27.1303 34.7166 27.2001 34.7833 27.2797 34.7634C27.2999 34.7569 27.3199 34.7496 27.3395 34.7415C27.4888 34.6807 27.6381 34.615 27.7875 34.5612C27.9069 34.5174 27.9865 34.4517 27.9965 34.3143C28.0065 34.2366 28.0463 34.2127 28.116 34.2336C28.2454 34.2655 28.365 34.2963 28.4745 34.3481C28.7234 34.4646 28.9821 34.5264 29.2609 34.5473C29.5795 34.5722 29.8882 34.6379 30.2068 34.7176C30.5055 34.7942 30.8041 34.86 31.1127 34.8998C31.2023 34.9117 31.2919 34.9386 31.3815 34.9625C31.4413 34.9785 31.4712 35.0093 31.4613 35.0512C31.4613 35.1199 31.4313 35.1746 31.3716 35.1866C31.3218 35.1995 31.2621 35.2045 31.2024 35.2095C31.1128 35.2155 31.0232 35.2224 30.9435 35.2214C30.899 35.2225 30.8548 35.2137 30.8141 35.1955C30.7344 35.1577 30.6448 35.1637 30.5552 35.1687C30.4557 35.1746 30.3959 35.2543 30.4158 35.3519C30.4158 35.3987 30.4456 35.4355 30.4855 35.4544C30.5266 35.473 30.5702 35.4855 30.6149 35.4913C30.8439 35.5222 31.0729 35.551 31.3019 35.5102C31.4612 35.4843 31.6105 35.4674 31.7599 35.4515C31.9191 35.4365 32.0485 35.4047 32.1083 35.2324C32.1182 35.1766 32.1879 35.1537 32.2278 35.1687C32.3472 35.2045 32.4469 35.2553 32.5564 35.3011V35.3379C32.5464 35.351 32.5324 35.3605 32.5165 35.3648C32.2676 35.4644 32.0187 35.57 31.7499 35.6277C31.6503 35.6496 31.5707 35.6805 31.5409 35.788C31.5209 35.8448 31.4712 35.8607 31.4214 35.8597C31.3616 35.8587 31.3018 35.8567 31.2421 35.8538C31.1768 35.8467 31.1108 35.8543 31.0488 35.876C30.9868 35.8977 30.9304 35.933 30.8837 35.9792C30.8337 36.0323 30.7704 36.071 30.7003 36.0913C30.6303 36.1116 30.5561 36.1128 30.4855 36.0947C30.356 36.0709 30.2168 36.0838 30.0873 36.0888C30.0225 36.0943 29.9588 36.1091 29.8981 36.1326C29.8384 36.1535 29.8085 36.2043 29.7986 36.265C29.7687 36.3766 29.8185 36.4512 29.938 36.4662C29.9977 36.4741 30.0574 36.4751 30.1171 36.4771C30.2167 36.4821 30.3163 36.4851 30.4158 36.4871C30.4855 36.4891 30.5353 36.508 30.5652 36.5628C30.6349 36.6564 30.7245 36.7161 30.8241 36.7609C30.9336 36.8067 31.0331 36.8197 31.1426 36.7838C31.3118 36.7311 31.4811 36.6942 31.6504 36.6474C31.72 36.6285 31.7797 36.6275 31.8494 36.6464C31.9039 36.6656 31.961 36.6763 32.0187 36.6783C32.2577 36.6773 32.4866 36.7181 32.7156 36.755C32.7813 36.7667 32.8481 36.7717 32.9148 36.7699C32.9588 36.7673 33 36.7477 33.0297 36.7151C33.0595 36.6826 33.0755 36.6397 33.0741 36.5956C33.0741 36.5249 33.0342 36.4652 32.9645 36.4473C32.9346 36.4383 32.8948 36.4363 32.855 36.4303C32.6957 36.4024 32.626 36.3228 32.6061 36.1545C32.5961 36.1186 32.5961 36.0818 32.5861 36.0469C32.5762 36.0051 32.5365 35.9553 32.5464 35.9265C32.5763 35.8757 32.636 35.8946 32.6858 35.8926C32.7356 35.8916 32.7952 35.8966 32.845 35.8926C32.9346 35.8846 32.9944 35.9175 33.0243 36.0131C33.0442 36.0828 33.1039 36.1127 33.1736 36.1127C33.2135 36.1137 33.2632 36.1137 33.3031 36.1117C33.4325 36.1067 33.552 36.1196 33.6714 36.1654C33.771 36.2023 33.8705 36.2093 33.97 36.1983C34.1293 36.1814 34.2986 36.1744 34.4579 36.1555C34.5873 36.1376 34.7367 36.1236 34.8661 36.0818C35.0851 36.0121 35.3042 35.9225 35.5232 35.8408C35.6427 35.796 35.7721 35.7502 35.8916 35.7074C36.0708 35.6466 36.25 35.6217 36.4292 35.6536C36.6084 35.6835 36.7776 35.6476 36.9568 35.6217C37.0663 35.6058 37.1659 35.5759 37.2755 35.558C37.3863 35.5473 37.4909 35.5017 37.5741 35.4276C37.6139 35.3897 37.6737 35.3818 37.7334 35.3628C37.7931 35.3419 37.823 35.2981 37.8429 35.2364C37.8628 35.1587 37.813 35.079 37.7334 35.077C37.5841 35.0751 37.4348 35.0701 37.2954 35.089C37.0465 35.1219 36.7976 35.093 36.5587 35.0502C36.5006 35.0418 36.4437 35.0264 36.3894 35.0044C36.2599 34.9536 36.1305 34.8978 36.0011 34.842C35.9911 34.8381 35.9811 34.8171 35.9811 34.8092C35.9911 34.7982 36.0011 34.7863 36.021 34.7843C36.0708 34.7783 36.1306 34.7723 36.1903 34.7713C36.4492 34.7634 36.7079 34.7584 36.9568 34.7484C37.1957 34.7395 37.4248 34.7285 37.6638 34.7136C37.7434 34.7086 37.813 34.7186 37.8529 34.8112C37.8728 34.843 37.9225 34.8689 37.9624 34.8729C38.0619 34.8839 38.1515 34.9187 38.2411 34.9456C38.3108 34.9665 38.3805 34.9725 38.4502 34.9824C38.5896 35.0004 38.729 35.0073 38.8584 35.0631C38.8982 35.079 38.9082 35.1268 38.8883 35.1537C38.8784 35.1587 38.8783 35.1647 38.8684 35.1697C38.8684 35.1756 38.8584 35.1816 38.8584 35.1846C38.7741 35.2375 38.7045 35.3107 38.6558 35.3975C38.6071 35.4843 38.5809 35.582 38.5796 35.6815C38.5796 35.7323 38.5398 35.7582 38.49 35.7661C38.2113 35.8149 37.9326 35.8617 37.6538 35.9115C37.4646 35.9434 37.2954 35.9912 37.146 36.1176C37.1162 36.1495 37.0564 36.1664 37.0066 36.1784C36.927 36.1983 36.8374 36.2093 36.7478 36.2252C36.698 36.2361 36.6382 36.2451 36.5785 36.263C36.5465 36.2719 36.5189 36.292 36.5006 36.3196C36.4823 36.3472 36.4746 36.3805 36.4789 36.4134C36.4889 36.4781 36.5387 36.5269 36.6183 36.5269C36.688 36.5269 36.7477 36.5209 36.8174 36.51C36.9966 36.4801 37.1759 36.4482 37.3551 36.4114C37.4174 36.3951 37.4833 36.3975 37.5443 36.4184C37.6837 36.4682 37.813 36.4612 37.9624 36.4363C38.1017 36.4114 38.2511 36.4005 38.3905 36.3855C38.4502 36.3785 38.51 36.3915 38.5399 36.4582C38.5498 36.5 38.5896 36.4951 38.6294 36.4871C38.8286 36.4443 39.0376 36.4373 39.2467 36.4383C39.3761 36.4393 39.5056 36.4363 39.635 36.4602C39.9536 36.519 40.1925 36.3925 40.4016 36.1804C40.4614 36.1177 40.521 36.0489 40.5708 35.9792C40.6704 35.8538 40.7898 35.792 40.9491 35.804C41.2777 35.8279 41.5366 35.6994 41.7656 35.4933C41.7956 35.472 41.8294 35.4564 41.8651 35.4475C41.9945 35.4216 42.114 35.3808 42.2434 35.329C42.3729 35.2742 42.5023 35.2453 42.6417 35.2404C42.8408 35.2344 43.0399 35.1985 43.2291 35.1418C43.4083 35.087 43.5974 35.0651 43.7865 35.0671C44.0056 35.0701 44.2146 35.0292 44.4138 34.9715C44.6228 34.9117 44.8419 34.857 45.0509 34.8002C45.2501 34.7454 45.4293 34.6538 45.5986 34.5294C45.7977 34.383 45.8375 34.1898 45.7976 33.9647C45.7578 33.8134 45.6882 33.676 45.5986 33.5525C45.4592 33.3802 45.3297 33.2059 45.1804 33.0377C44.8419 32.6214 44.5034 32.1952 44.1948 31.7531C44.0653 31.5679 43.9061 31.4026 43.7568 31.2293C43.6174 31.056 43.458 30.8887 43.3186 30.7125C43.0299 30.352 42.7512 29.9836 42.4624 29.6281C42.2633 29.3911 42.0543 29.168 41.8452 28.9439C41.5266 28.6034 41.1981 28.2668 40.8695 27.9282C40.77 27.8217 40.6903 27.7032 40.6107 27.5797C40.4613 27.3547 40.2921 27.1386 40.1328 26.9195C40.0233 26.7651 39.9038 26.6158 39.7943 26.4594C39.6363 26.2236 39.4451 26.0116 39.2268 25.8301C38.9878 25.6359 38.739 25.4447 38.5 25.2545C38.2013 25.0185 37.9326 24.7566 37.6638 24.4778C37.4951 24.2957 37.345 24.0972 37.2157 23.8853C37.0265 23.5826 36.8174 23.2918 36.5984 23.009C36.4391 22.8118 36.2998 22.6107 36.1504 22.4115C35.5929 21.6448 34.9457 20.9597 34.2189 20.3502C34.0397 20.2009 33.8606 20.0416 33.6914 19.8862C33.542 19.7498 33.3826 19.6134 33.2333 19.473C33.1537 19.3933 33.0641 19.3086 32.9944 19.217C32.855 19.0368 32.7156 18.8655 32.5265 18.7331C32.407 18.6524 32.3273 18.5439 32.2377 18.4313C32.073 18.1951 31.8405 18.0145 31.5707 17.9135C31.3716 17.8398 31.1526 17.794 30.9336 17.7622C30.6239 17.7143 30.311 17.6897 29.9976 17.6885C29.8284 17.6885 29.709 17.7761 29.5696 17.8438C29.47 17.9783 29.3704 18.1147 29.3604 18.2919C29.3556 18.3022 29.3532 18.3134 29.3532 18.3248C29.3532 18.3362 29.3556 18.3474 29.3604 18.3577C29.3903 18.5897 29.261 18.7271 29.0818 18.8356C28.9723 18.8994 28.8627 18.9551 28.7532 19.0129C28.7133 19.0328 28.6735 19.0547 28.6337 19.0677C28.5242 19.1025 28.4147 18.998 28.4346 18.8785C28.4524 18.8149 28.491 18.7592 28.5441 18.7201C28.6337 18.6654 28.7134 18.6036 28.8129 18.5648C28.9424 18.509 29.0419 18.4154 29.1116 18.2929C29.1315 18.2551 29.1614 18.2202 29.1813 18.1824C29.2112 18.1356 29.2012 18.1057 29.1514 18.0778C28.9963 17.9962 28.8276 17.9436 28.6536 17.9225C28.5278 17.9117 28.4015 17.9083 28.2753 17.9125C28.0961 17.9165 28.0066 17.9962 27.9767 18.1714V18.1914C27.9866 18.3636 27.897 18.4801 27.7775 18.5867C27.668 18.6793 27.5783 18.7849 27.4887 18.8924C27.3593 19.0517 27.1802 19.1553 26.9811 19.221C26.3539 19.4281 25.8062 19.7607 25.2885 20.163C25.189 20.2387 25.0993 20.3283 25.0097 20.414C24.9415 20.4717 24.8986 20.554 24.8903 20.643C24.8903 20.7496 24.8305 20.8382 24.7808 20.9248C24.5717 21.2445 24.3726 21.5651 24.1635 21.8818C24.0142 22.0949 23.8649 22.304 23.7155 22.5091C23.606 22.6575 23.4865 22.7959 23.3769 22.9373C23.357 22.9672 23.367 22.9901 23.3969 23.003C23.4566 23.0259 23.5064 23.018 23.5662 22.9921C23.6956 22.9323 23.825 22.8796 23.9445 22.8208C24.0839 22.7591 24.2233 22.7172 24.3627 22.6934C24.4153 22.6845 24.4686 22.6815 24.5219 22.6844C24.6015 22.6914 24.6613 22.7491 24.6812 22.8338C24.6925 22.8733 24.6897 22.9156 24.6733 22.9533C24.657 22.9911 24.6282 23.022 24.5917 23.0409C24.5484 23.0647 24.5012 23.0806 24.4523 23.0877C24.1237 23.1434 23.8449 23.2948 23.5662 23.4581C23.5562 23.4651 23.5363 23.4741 23.5263 23.483C23.3073 23.6722 23.0386 23.7598 22.7498 23.7937C22.5597 23.8164 22.3704 23.8456 22.1823 23.8813C22.0429 23.9082 21.8936 23.9361 21.7543 23.9909C21.2863 24.185 20.8183 24.3991 20.3902 24.6879C20.3504 24.7158 20.3105 24.7447 20.2707 24.7775C20.2398 24.7993 20.2129 24.8263 20.1911 24.8572C20.1494 24.9817 20.0647 25.0873 19.9522 25.155C19.9223 25.1729 19.9025 25.2237 19.8825 25.2615C19.7332 25.5274 19.554 25.7644 19.3648 25.9964C19.2155 26.1707 19.086 26.3569 18.9566 26.5441C18.8172 26.7522 18.7176 26.9792 18.6479 27.2212C18.5782 27.4742 18.4986 27.7261 18.4289 27.98C18.3791 28.1722 18.2995 28.3524 18.1999 28.5197C18.0705 28.7179 17.9411 28.9141 17.8017 29.1023C17.6125 29.3632 17.4632 29.649 17.3736 29.9597C17.3039 30.1688 17.2243 30.3739 17.1347 30.5751C17.0849 30.6936 17.0152 30.8061 16.9355 30.9116C16.7762 31.1247 16.597 31.3179 16.4078 31.4992C16.2884 31.6137 16.1789 31.7411 16.0594 31.8656C15.9399 32.001 15.8205 32.1385 15.701 32.2769C15.6313 32.3605 15.5517 32.4432 15.492 32.5348C15.4024 32.6772 15.2928 32.8017 15.1633 32.9102C15.004 33.0416 14.8647 33.19 14.7453 33.3613C14.6955 33.439 14.6457 33.5236 14.6158 33.6122C14.576 33.7337 14.5162 33.8413 14.4465 33.9428C14.3919 34.0116 14.3513 34.0904 14.3271 34.1749C14.3176 34.2105 14.3002 34.2434 14.276 34.2712C14.2519 34.299 14.2216 34.3209 14.1877 34.3352C14.1279 34.368 14.0583 34.3989 13.9886 34.4278C13.8592 34.4855 13.7496 34.5592 13.6899 34.7026C13.67 34.7713 13.6202 34.8052 13.5505 34.8191C13.4808 34.8341 13.4012 34.85 13.3315 34.8699C13.212 34.9028 13.1224 34.9655 13.0826 35.09C13.0527 35.1796 12.9931 35.2175 12.9134 35.2423C12.6645 35.318 12.4156 35.3847 12.1667 35.4236C12.0672 35.4395 11.9675 35.4545 11.858 35.4744C11.7386 35.4993 11.6191 35.5421 11.5196 35.6068C11.4203 35.6591 11.3427 35.7448 11.3006 35.8488C11.2508 35.9673 11.2806 36.0669 11.3901 36.1336C11.4275 36.157 11.4676 36.1757 11.5096 36.1893C11.6788 36.2342 11.8481 36.2969 12.0174 36.3158C12.3957 36.3556 12.774 36.4034 13.1623 36.3965C13.2121 36.3955 13.2717 36.3955 13.3315 36.3895C13.3646 36.3872 13.3968 36.3778 13.426 36.362C13.4552 36.3462 13.4807 36.3243 13.5008 36.2979C13.5218 36.2751 13.5375 36.2479 13.547 36.2184C13.5564 36.1889 13.5594 36.1576 13.5556 36.1269C13.5518 36.0961 13.5414 36.0665 13.5251 36.0402C13.5087 36.0138 13.4868 35.9913 13.4609 35.9743C13.4012 35.9364 13.3415 35.9085 13.2917 35.8777C13.242 35.8528 13.1922 35.8309 13.1523 35.804C13.1424 35.799 13.1424 35.7771 13.1424 35.7661C13.1523 35.7552 13.1622 35.7432 13.1722 35.7412C13.202 35.7373 13.232 35.7343 13.2618 35.7373C13.7596 35.793 14.2574 35.7412 14.7453 35.6576C14.9046 35.6307 15.0638 35.5978 15.2231 35.564C15.3625 35.5321 15.5019 35.4734 15.5716 35.329C15.6014 35.2712 15.6612 35.2523 15.7209 35.2493C15.7807 35.2463 15.8503 35.2433 15.92 35.2423C16.2784 35.2384 16.6469 35.2364 17.0152 35.2334H17.1048C17.2541 35.2374 17.3935 35.2015 17.4931 35.0711C17.523 35.0283 17.5628 35.0282 17.6026 35.0551C17.6325 35.0701 17.6523 35.086 17.6722 35.1049C17.732 35.1517 17.7619 35.2075 17.7221 35.2792C17.6922 35.3409 17.6822 35.4037 17.7221 35.4664C17.742 35.4953 17.7719 35.5291 17.7719 35.556C17.7619 35.6078 17.7121 35.6078 17.6623 35.6128C17.3935 35.6526 17.1147 35.6865 16.836 35.6895C16.4178 35.6934 16.0096 35.7562 15.6015 35.8657C15.3725 35.9284 15.1434 36.0111 14.9144 36.0878C14.8583 36.1064 14.8048 36.1322 14.7552 36.1645C14.7202 36.1882 14.6897 36.2183 14.6655 36.2531C14.566 36.3915 14.6257 36.5359 14.795 36.5528C14.8647 36.5598 14.9444 36.5568 15.0141 36.5568H15.7209ZM33.9004 30.4795C34.0398 30.4904 34.1891 30.4884 34.3384 30.5153C34.6271 30.5701 34.9258 30.6029 35.2245 30.6298C35.2842 30.6348 35.344 30.6418 35.3938 30.6567C35.5033 30.6856 35.5531 30.7722 35.5431 30.8718C35.5232 30.9764 35.4535 31.0361 35.344 31.0371C35.3207 31.0371 35.2975 31.0361 35.2743 31.0341C34.9955 31.0013 34.7069 30.9803 34.4281 30.9335C34.0299 30.8668 33.6315 30.8678 33.2333 30.9714C32.9147 31.055 32.5862 31.0799 32.2576 31.0769C32.2075 31.0766 32.1574 31.0712 32.1083 31.061C31.9988 31.0361 31.959 30.9415 31.9888 30.8399C32.0187 30.7483 32.0984 30.6975 32.188 30.6826C32.2577 30.6697 32.3274 30.6707 32.407 30.6687C32.6758 30.6597 32.9545 30.6388 33.2233 30.5681C33.4424 30.5093 33.6714 30.4785 33.9004 30.4795ZM26.6724 24.196C26.6824 24.1671 26.6924 24.1233 26.7123 24.0845C26.7521 23.9998 26.8019 23.9152 26.8517 23.8355C27.001 23.5965 27.1603 23.3575 27.3196 23.1245C27.7178 22.5679 28.0961 22.0053 28.4346 21.4157C28.4564 21.3769 28.4831 21.341 28.5142 21.3092C28.5939 21.2176 28.7333 21.2534 28.7631 21.3759C28.783 21.4277 28.783 21.4775 28.7631 21.5253C28.7233 21.592 28.6935 21.6577 28.6636 21.7205C28.4246 22.1218 28.1757 22.5211 27.9069 22.9055C27.668 23.254 27.439 23.6075 27.2001 23.958C27.1404 24.0426 27.0806 24.1283 27.0208 24.207C26.981 24.2567 26.9213 24.2966 26.8715 24.3344C26.8317 24.3613 26.7918 24.3613 26.742 24.3384C26.6923 24.3105 26.6824 24.2647 26.6724 24.196ZM23.5861 35.7751V35.793C23.5164 35.793 23.4467 35.795 23.3671 35.792C23.3571 35.791 23.3173 35.7781 23.3173 35.7651C23.3073 35.7412 23.3173 35.7034 23.3272 35.6875C23.4069 35.6068 23.4865 35.5351 23.5562 35.4535C23.6757 35.317 23.8349 35.2513 24.0141 35.2035C24.1635 35.1597 24.3229 35.1448 24.4822 35.1458C24.5419 35.1467 24.6016 35.1537 24.6513 35.1935C24.721 35.2523 24.8106 35.2662 24.8903 35.2792C24.9799 35.2911 25.0695 35.3041 25.1491 35.322C25.2387 35.3409 25.2586 35.3708 25.2686 35.4554C25.2785 35.5421 25.2587 35.5799 25.1691 35.5949C25.0695 35.6148 24.96 35.6317 24.8505 35.6496C24.7012 35.6735 24.5518 35.7054 24.3925 35.7193C24.1237 35.7442 23.8549 35.7572 23.5861 35.7751ZM25.4777 25.133C25.6271 25.139 25.6967 25.2645 25.6469 25.379C25.627 25.4517 25.5673 25.4985 25.5075 25.5443C25.2288 25.7704 24.9201 25.9526 24.6214 26.1468C24.5666 26.181 24.5059 26.2046 24.4423 26.2165C24.3328 26.2364 24.2531 26.1428 24.283 26.0402C24.3029 25.9924 24.3229 25.9426 24.3527 25.9068C24.4125 25.843 24.4821 25.7833 24.5518 25.7335C24.8106 25.5493 25.0795 25.369 25.3483 25.1908C25.3981 25.1589 25.4479 25.144 25.4777 25.133ZM17.1744 34.8659C17.1446 34.862 17.1148 34.8629 17.0948 34.856C17.065 34.844 17.035 34.8211 17.035 34.7783C17.035 34.7454 17.0749 34.7206 17.1148 34.7255L17.1844 34.7385C17.2242 34.7534 17.2741 34.8082 17.2542 34.8261C17.2343 34.847 17.1944 34.857 17.1744 34.8659ZM18.6082 19.5377L21.8638 19.466C22.9888 19.4401 24.1137 19.4102 25.2487 19.3863C25.3788 19.3845 25.506 19.3477 25.617 19.2798C26.1945 18.9233 26.7719 18.5698 27.3593 18.2153C27.3792 18.2003 27.4092 18.1854 27.4291 18.1655C27.439 18.1525 27.439 18.1236 27.4291 18.1097C27.4191 18.0848 27.3991 18.0659 27.3792 18.045C27.1303 17.804 26.8815 17.564 26.6425 17.322C26.2343 16.9197 25.7963 16.5503 25.3583 16.1918C24.97 15.8791 24.5817 15.5664 24.2034 15.2448C23.7753 14.8794 23.3073 14.5677 22.8294 14.2659C22.7398 14.2102 22.6502 14.1564 22.5706 14.1036C22.3814 13.9941 22.2122 13.8716 22.0628 13.7222C22.0021 13.6585 21.9212 13.6177 21.8339 13.6067C21.7821 13.6033 21.733 13.5826 21.6945 13.548C21.6148 13.4813 21.5352 13.4763 21.4456 13.4783C21.0672 13.4892 20.6889 13.5012 20.3106 13.5091C20.0318 13.5151 19.7631 13.5161 19.4942 13.5211L16.8459 13.5729L14.9742 13.6107C14.2176 13.6266 13.4509 13.6406 12.6943 13.6575C12.6207 13.6603 12.5474 13.6693 12.4753 13.6844C12.4318 13.6902 12.3906 13.7073 12.3558 13.7342C12.2662 13.8328 12.1468 13.8836 12.0473 13.9752C11.9079 14.1146 11.8182 14.2908 11.7485 14.481C11.6888 14.6842 11.6589 14.8953 11.6291 15.1044C11.5892 15.4081 11.5395 15.7118 11.5096 16.0175C11.4797 16.2864 11.4697 16.5573 11.4598 16.8271C11.4399 17.0094 11.43 17.1916 11.42 17.3748C11.4101 17.5053 11.4101 17.6377 11.4001 17.7691C11.4001 18.1575 11.4199 18.5439 11.4498 18.9302C11.4697 19.0896 11.5096 19.2469 11.5395 19.4052C11.5495 19.459 11.5793 19.4959 11.6291 19.5198C11.6689 19.5407 11.7187 19.5596 11.7585 19.5934C11.8481 19.6791 11.9576 19.702 12.087 19.698C12.3259 19.692 12.5649 19.69 12.8038 19.6851L14.566 19.6422L18.1601 19.5546C18.3393 19.5496 18.5086 19.5407 18.6082 19.5377ZM47.072 12.9694L45.738 12.9923C44.1782 13.0212 42.6184 13.0514 41.0586 13.0829L39.7644 13.1158C39.7346 13.1158 39.7146 13.1208 39.6847 13.1258C39.6748 13.1258 39.6649 13.1307 39.6649 13.1357C39.6649 13.1417 39.6649 13.1526 39.6749 13.1566C39.6948 13.1795 39.7246 13.1994 39.7545 13.2224C39.7843 13.2463 39.8241 13.2682 39.8341 13.299C39.854 13.3916 39.9337 13.4404 39.9934 13.4962C40.4514 13.8706 40.8994 14.243 41.3474 14.6214C41.5067 14.7579 41.6659 14.9033 41.8153 15.0457C42.1538 15.3444 42.5023 15.6182 42.8607 15.8901C43.249 16.1878 43.6373 16.4866 44.0256 16.7883C44.1948 16.9237 44.3641 17.0671 44.5234 17.2105C44.8121 17.4575 45.1008 17.7114 45.3895 17.9534C45.6484 18.1675 45.9171 18.3746 46.1859 18.5777C46.4547 18.7769 46.7435 18.8725 47.082 18.8605C47.9979 18.8277 48.9139 18.8078 49.8298 18.7849C50.2181 18.7749 50.6064 18.7719 50.9847 18.7639L52.9161 18.7181C53.6827 18.6982 54.4394 18.6763 55.206 18.6574C55.4151 18.6514 55.6242 18.6504 55.8333 18.6474C55.893 18.6474 55.9427 18.6474 55.9925 18.6435C56.1318 18.6335 56.2414 18.5628 56.2912 18.4264C56.3211 18.3348 56.3708 18.2561 56.4206 18.1754C56.57 17.9414 56.6496 17.6835 56.6895 17.4146C56.7691 17.0004 56.7592 16.5851 56.6994 16.1699C56.6198 15.4853 56.4103 14.8222 56.0822 14.2162C55.9513 13.9701 55.7943 13.7387 55.6141 13.5261C55.4872 13.3744 55.3437 13.2374 55.1861 13.1178C54.9173 12.9137 54.6186 12.8081 54.2701 12.8161C53.3741 12.836 52.4881 12.8509 51.592 12.8688L49.6208 12.9087L47.2513 12.9565H47.072V12.9694ZM45.0709 17.4246L45.0808 17.4306L45.0709 17.4206L45.0609 17.4166C45.0609 17.4196 45.0609 17.4216 45.0709 17.4246ZM45.2402 17.555C45.2601 17.57 45.27 17.5849 45.2899 17.5999L45.2998 17.6068L45.2899 17.5959C45.2799 17.5809 45.2601 17.566 45.2501 17.5521L45.2302 17.5421L45.2402 17.555ZM45.0112 11.402L38.6294 11.422C38.2412 11.4239 37.8528 11.4319 37.4646 11.4389C37.4247 11.4389 37.3949 11.4449 37.3551 11.4528C37.3451 11.4538 37.3451 11.4777 37.3451 11.4867L37.375 11.5405C37.4248 11.5902 37.4746 11.6351 37.5144 11.6898C37.6139 11.8531 37.7733 11.9607 37.9326 12.0622C38.3009 12.2973 38.6793 12.5323 39.0377 12.7722C39.1472 12.84 39.2467 12.8659 39.3761 12.8639C40.1726 12.8519 40.9691 12.8439 41.7656 12.834L45.1604 12.7902L48.655 12.7454C49.7501 12.7314 50.8453 12.7175 51.9405 12.7015C52.4781 12.6946 53.0257 12.6846 53.5633 12.6737C53.6429 12.6727 53.7226 12.6667 53.8022 12.6577C53.852 12.6528 53.8818 12.6239 53.8918 12.5751C53.9138 12.5011 53.9181 12.4229 53.9043 12.347C53.8905 12.271 53.8589 12.1994 53.8122 12.1379C53.7126 11.9846 53.5932 11.8491 53.4438 11.7336C53.2 11.4998 52.8756 11.3686 52.5378 11.3672C51.1838 11.3712 49.8298 11.3722 48.4758 11.3791C47.321 11.3851 46.1661 11.3961 45.0112 11.405V11.402ZM17.1447 13.1606C17.9312 13.1457 18.6181 13.1307 19.305 13.1208C19.8924 13.1128 20.4898 13.1108 21.0772 13.1058C21.1369 13.1058 21.1967 13.1058 21.2565 13.1029C21.4158 13.0979 21.4356 13.063 21.346 12.9236C21.2757 12.8215 21.1993 12.7237 21.1171 12.6308C20.8234 12.3233 20.5072 12.038 20.1712 11.7774C20.0901 11.7132 20.0104 11.6471 19.9322 11.5793C19.9078 11.5542 19.8782 11.5347 19.8456 11.522C19.813 11.5093 19.7781 11.5037 19.7431 11.5056C19.315 11.5106 18.8869 11.5126 18.4688 11.5175C18.3393 11.5175 18.2199 11.5245 18.0904 11.5255C17.4632 11.5275 16.836 11.5275 16.2088 11.5305C15.243 11.5335 14.2872 11.5385 13.3315 11.5424C13.0925 11.5444 13.0926 11.5484 12.9731 11.7555C12.8636 11.9447 12.8138 12.1459 12.8138 12.364C12.8237 12.4735 12.8237 12.583 12.8337 12.6926C12.8436 12.8579 12.9233 12.9993 13.003 13.1377C13.0329 13.1795 13.0727 13.1975 13.1125 13.1994C13.1822 13.1994 13.2518 13.2014 13.3116 13.1994C14.2872 13.1875 15.263 13.1726 16.2287 13.1606C16.5672 13.1566 16.9057 13.1606 17.1447 13.1606ZM51.592 30.6726C51.602 30.7593 51.602 30.825 51.6219 30.8887C51.6618 31.0779 51.7912 31.1944 51.9803 31.2134C52.1055 31.2258 52.2318 31.2081 52.3487 31.1616C52.5379 31.0899 52.7071 30.9893 52.8664 30.8738C53.185 30.6428 53.4836 30.3769 53.7524 30.0861C54.2402 29.5534 54.6783 28.9748 55.0068 28.3206C55.1263 28.0776 55.2259 27.8277 55.2657 27.5568C55.2891 27.4412 55.2822 27.3215 55.2458 27.2093C55.186 27.0131 55.0567 26.9046 54.8476 26.9026C54.7669 26.9005 54.6864 26.9106 54.6087 26.9324C54.4295 26.9862 54.2702 27.0579 54.1109 27.1645C53.7425 27.4214 53.414 27.7221 53.1153 28.0507C52.6374 28.5616 52.2192 29.1162 51.9006 29.7376C51.801 29.9338 51.7114 30.1339 51.6517 30.347C51.6218 30.4605 51.6119 30.576 51.592 30.6726Z" fill="black"/>
<path d="M49.3219 33.1862C49.314 33.3769 49.3588 33.566 49.4513 33.7329C49.5111 33.8335 49.6107 33.8863 49.7301 33.8833C49.787 33.8816 49.8436 33.8749 49.8993 33.8634C50.5564 33.7349 51.1538 33.472 51.7213 33.1235C52.4081 32.6895 53.0342 32.1661 53.5831 31.5671C54.1017 31.0006 54.5496 30.3734 54.9171 29.699C55.0565 29.4341 55.1859 29.1622 55.2855 28.8814C55.2954 28.8555 55.3054 28.8207 55.2954 28.7978C55.2736 28.7459 55.247 28.6962 55.2158 28.6494C55.2158 28.6464 55.1859 28.6534 55.176 28.6623C55.1461 28.7171 55.1063 28.7739 55.0764 28.8316C54.728 29.4639 54.3198 30.0465 53.8021 30.5514C53.4436 30.8999 53.0454 31.1936 52.5875 31.4037C52.2888 31.5382 51.9801 31.6278 51.6615 31.6557C51.4823 31.6706 51.2932 31.6885 51.114 31.6925C51.0045 31.6955 50.8949 31.6796 50.7854 31.6617C50.6425 31.6366 50.4956 31.6465 50.3574 31.6905C50.1383 31.7612 49.9491 31.8807 49.7898 32.056C49.5807 32.3029 49.4315 32.5868 49.3518 32.9044C49.3319 32.995 49.3319 33.0916 49.3219 33.1862ZM28.7033 34.902C28.5839 34.895 28.5142 34.889 28.4445 34.886C28.3964 34.8812 28.348 34.8879 28.303 34.9053C28.258 34.9228 28.2178 34.9507 28.1856 34.9866C28.1259 35.0543 28.0562 35.0742 27.9766 35.0852C27.8571 35.1021 27.7275 35.134 27.6081 35.1599C27.494 35.1815 27.3877 35.2327 27.2995 35.3083C27.2489 35.3515 27.1864 35.3785 27.1202 35.3859C27.0107 35.4098 26.8913 35.4387 26.7818 35.4756C26.6026 35.5343 26.5528 35.6817 26.6524 35.84C26.722 35.9545 26.8217 36.0242 26.961 36.0202C27.0407 36.0183 27.1203 36.0322 27.19 36.073C27.2597 36.1148 27.3393 36.1288 27.419 36.0999C27.4588 36.086 27.5086 36.086 27.5484 36.086C27.8272 36.088 28.1059 36.076 28.3847 36.0441C28.534 36.0262 28.6834 36.0451 28.8427 36.0521C28.9423 36.0571 29.0418 36.071 29.1413 36.078C29.3604 36.0929 29.5694 36.0342 29.7586 35.9486C29.8168 35.925 29.8697 35.8901 29.9141 35.8458C29.9586 35.8015 29.9937 35.7487 30.0174 35.6906C30.0871 35.5223 30.0274 35.367 29.8681 35.2834C29.8076 35.2559 29.7442 35.2355 29.679 35.2226C29.579 35.1976 29.4845 35.1544 29.4002 35.0952C29.2301 34.955 29.0126 34.8858 28.7929 34.902C28.7431 34.905 28.7033 34.902 28.7033 34.902ZM15.462 37.8485C15.5914 37.8236 15.7308 37.8157 15.8602 37.7699C16.0693 37.6972 16.2684 37.6026 16.4575 37.509C16.5571 37.4651 16.6268 37.3944 16.6666 37.2959C16.7164 37.1863 16.6965 37.0847 16.5969 37.032C16.2783 36.8746 15.9598 36.8129 15.6213 36.9414C15.54 36.9739 15.468 37.0263 15.4121 37.0937C15.3325 37.1983 15.2529 37.2979 15.1434 37.3715C15.0737 37.4124 15.0439 37.4801 15.024 37.5528C15.004 37.6643 15.0439 37.7649 15.1534 37.7977C15.2529 37.8266 15.3524 37.8316 15.462 37.8485ZM33.6813 37.5319C33.8406 37.5269 33.9799 37.4622 34.0993 37.3934C34.1889 37.3496 34.2188 37.263 34.2088 37.1694C34.2088 37.0688 34.1392 37.0141 34.0496 36.9822C33.9878 36.9579 33.9246 36.9373 33.8604 36.9204C33.7721 36.8978 33.6789 36.9058 33.5957 36.9431C33.5125 36.9803 33.4444 37.0447 33.4025 37.1256C33.3228 37.2809 33.3826 37.4353 33.5419 37.501C33.5916 37.5189 33.6414 37.5229 33.6813 37.5319ZM25.7762 37.3556C25.8658 37.3387 25.9754 37.3277 26.065 37.2989C26.1845 37.265 26.2441 37.1793 26.2441 37.0738C26.2444 37.0144 26.2251 36.9566 26.1891 36.9094C26.1531 36.8622 26.1024 36.8283 26.0451 36.8129C25.9281 36.7802 25.8048 36.7779 25.6867 36.8059C25.5373 36.8388 25.4477 36.9433 25.378 37.0688C25.368 37.1047 25.368 37.1545 25.368 37.1963C25.368 37.2421 25.3979 37.2819 25.4477 37.2919C25.5473 37.3178 25.6568 37.3347 25.7762 37.3556ZM28.992 37.0877C29.1015 37.0718 29.2309 37.0559 29.3504 37.036C29.44 37.022 29.4898 36.9603 29.5097 36.8766C29.5296 36.795 29.5297 36.7143 29.46 36.6536C29.3898 36.5897 29.3039 36.5457 29.2111 36.5261C29.1016 36.5042 29.0119 36.542 28.982 36.6466C28.967 36.7332 28.9252 36.813 28.8625 36.8746C28.8426 36.8946 28.8427 36.9264 28.8328 36.9543C28.8228 37.027 28.8626 37.0838 28.9423 37.0877H28.992ZM34.8261 37.036C34.836 37.0658 34.8361 37.1176 34.856 37.1634C34.8958 37.2481 35.0153 37.263 35.085 37.1953C35.1049 37.1744 35.1248 37.1495 35.1248 37.1236C35.1597 37.0189 35.1597 36.9057 35.1248 36.801C35.1149 36.788 35.1049 36.7751 35.1049 36.7631C35.0452 36.6795 34.9357 36.6775 34.8859 36.7621C34.8677 36.7935 34.8542 36.8274 34.846 36.8627C34.8361 36.9125 34.836 36.9643 34.8261 37.036ZM36.3793 36.2513C36.3693 36.1168 36.2897 36.0511 36.1603 36.086C36.1185 36.0996 36.0784 36.118 36.0408 36.1407C36.0212 36.1562 36.0056 36.1761 35.9952 36.1988C35.9848 36.2214 35.9799 36.2463 35.981 36.2712C35.981 36.325 36.0208 36.3708 36.0706 36.3787C36.1303 36.3877 36.1801 36.3927 36.2399 36.3986C36.3195 36.4056 36.3693 36.3678 36.3693 36.2931C36.3771 36.2806 36.3806 36.2659 36.3793 36.2513ZM0.289199 43.0127C0.338978 43.0147 0.378758 42.9798 0.368802 42.935C0.368802 42.8892 0.329023 42.8534 0.289199 42.8594C0.249376 42.8653 0.219561 42.8892 0.219561 42.9281C0.209605 42.9739 0.23942 43.0107 0.289199 43.0127Z" fill="black"/>
</svg>
