<svg width="61" height="70" viewBox="0 0 61 70" fill="none" xmlns="http://www.w3.org/2000/svg">
<g id="IMAGE" clip-path="url(#clip0_1_142)">
<path id="Vector" d="M30.893 1.24734L22.4434 11.0691L22.3106 11.2235L22.1214 11.2221L10.0948 11.1333L10.1722 24.9343L10.1734 25.1514L10.0388 25.304L1.47986 35.0001L10.0387 44.696L10.1734 44.8486L10.1722 45.0657L10.0948 58.8667L22.1214 58.7779L22.3106 58.7765L22.4434 58.9309L30.893 68.7527L39.3423 58.9309L39.4752 58.7765L39.6644 58.7779L51.691 58.8667L51.6136 45.0657L51.6124 44.8486L51.747 44.696L60.3059 35.0001L51.747 25.304L51.6124 25.1514L51.6136 24.9343L51.691 11.1333L39.6644 11.2221L39.4752 11.2235L39.3423 11.0691L30.893 1.24734V1.24734Z" stroke="black" stroke-width="1.02941"/>
<g id="Group">
<path id="Vector_2" d="M40.3482 26.9922C40.2639 26.6619 39.8549 26.683 39.8112 27.0234C39.5555 29.0181 41.029 33.7355 40.5023 35.9184C40.4988 35.9325 40.4954 35.9466 40.4919 35.9607C40.3777 36.4295 39.7767 36.3376 39.7721 35.8512C39.7544 33.9655 39.3221 31.9035 38.3941 30.6408C34.8988 25.8833 38.6314 22.3732 38.4934 21.2354C38.4746 21.081 38.3459 20.9935 38.217 21.0431C38.2117 21.0454 38.2082 21.0467 38.2063 21.048C37.9836 21.1888 37.774 21.3599 37.5654 21.5261C36.1672 22.6416 34.8862 23.9835 34.1465 25.7905C33.721 26.8295 33.6083 27.9889 33.3653 29.0916C33.2729 29.5112 33.166 29.9264 33.0417 30.3354C32.9026 30.7942 32.7079 31.2548 32.3986 31.5947C32.2606 31.7465 32.0916 31.8586 31.9042 31.9004C31.4131 32.0096 31.1532 31.6181 31.0598 31.1575C30.7999 29.8771 30.9907 28.5844 31.0881 27.2957C31.4802 22.1071 26.5498 21.6242 28.3514 14.0588C28.829 12.0535 22.3777 18.643 24.551 24.3764C24.976 25.4975 24.9369 26.5673 24.4547 27.6485C23.9411 28.799 23.3094 29.8411 22.9978 31.1012C22.8859 31.5543 22.8231 32.0126 22.7735 32.4785C22.7099 33.0775 22.8617 33.9779 22.1718 34.1335C21.8858 34.1982 21.4895 34.1626 21.2527 33.9479C21.0675 33.7799 20.9652 33.5183 20.9043 33.2565C20.6187 32.0328 20.654 30.7951 20.7896 29.546C20.9088 28.4464 20.9924 26.3751 19.9958 28.4423C16.785 35.103 16.8999 43.3991 20.8199 49.6488C22.3271 52.0518 24.2393 53.5834 26.7415 54.2831C31.829 55.7056 37.9123 55.275 41.1155 50.259C42.339 48.3429 43.0738 46.003 43.5545 43.7113C44.1685 40.7836 44.2858 38.0025 43.3249 35.1615C42.3931 32.4045 41.0753 29.8419 40.3482 26.9922Z" fill="black"/>
</g>
</g>
<defs>
<clipPath id="clip0_1_142">
<rect width="61" height="70" fill="white"/>
</clipPath>
</defs>
</svg>
