<svg width="1354" height="716" viewBox="0 0 1354 716" fill="none" xmlns="http://www.w3.org/2000/svg">
<path d="M1333.66 460.195C1333.66 460.195 1329.65 464.012 1329.65 476.883C1329.65 495.039 1343.58 507.251 1343.58 526.087C1343.58 540.157 1332.1 547.811 1332.1 547.811V547.971C1339.95 547.971 1346.46 554.347 1346.46 562.21C1346.46 570.074 1340.12 576.45 1332.28 576.45V576.56C1340.12 576.56 1346.49 582.935 1346.49 590.8C1346.49 598.663 1340.12 605.039 1332.28 605.039L1332.22 605.518C1336.05 608.636 1353.49 624.295 1353.49 643.071C1353.49 664.156 1337.48 677.326 1337.48 692.175C1337.48 697.821 1338.65 700.789 1338.65 700.789L1338.45 700.719C1338.45 700.719 1335.26 699.47 1329.64 699.47C1314.81 699.47 1301.65 715.498 1280.6 715.498C1261.84 715.498 1246.2 698.041 1243.08 694.194L1242.6 694.254C1242.6 702.118 1236.23 708.493 1228.38 708.493C1220.52 708.493 1214.16 702.118 1214.16 694.254H1214.05C1214.05 702.118 1207.68 708.464 1199.82 708.464C1191.97 708.464 1185.61 701.948 1185.61 694.083H1185.45C1185.45 694.083 1177.8 705.576 1163.74 705.576C1144.93 705.576 1132.73 691.626 1114.6 691.626C1101.74 691.626 1097.93 695.643 1097.93 695.643H256.06C256.06 695.643 252.247 691.626 239.392 691.626C221.257 691.626 209.06 705.576 190.246 705.576C176.193 705.576 168.547 694.083 168.547 694.083H168.388C168.388 701.948 162.02 708.464 154.165 708.464C146.31 708.464 139.942 702.118 139.942 694.254H139.832C139.832 702.118 133.465 708.493 125.609 708.493C117.755 708.493 111.386 702.118 111.386 694.254L110.908 694.194C107.803 698.031 92.1636 715.488 73.4097 715.488C52.35 715.488 39.1953 699.46 24.3631 699.46C18.724 699.46 15.5501 700.709 15.5501 700.709L15.351 700.779C15.351 700.779 16.5188 697.801 16.5188 692.165C16.5188 677.326 0.509757 664.146 0.509757 643.061C0.509757 624.285 17.9455 608.626 21.7885 605.508L21.7287 605.029C13.8735 605.029 7.50576 598.653 7.50576 590.79C7.50576 582.925 13.8735 576.55 21.7287 576.55V576.44C13.8735 576.44 7.53562 570.064 7.53562 562.2C7.53562 554.336 14.0428 547.961 21.898 547.961V547.801C21.898 547.801 10.4198 540.147 10.4198 526.077C10.4198 507.241 24.3531 495.029 24.3531 476.873C24.3531 464.002 20.3409 460.185 20.3409 460.185V255.805C20.3409 255.805 24.3531 251.988 24.3531 239.117C24.3531 220.96 10.4198 208.749 10.4198 189.913C10.4198 175.843 21.899 168.189 21.899 168.189V168.029C14.0438 168.029 7.53562 161.653 7.53562 153.79C7.53562 145.925 13.8735 139.55 21.7287 139.55V139.44C13.8735 139.44 7.50576 133.065 7.50576 125.2C7.50576 117.337 13.8735 110.96 21.7287 110.96L21.7885 110.481C17.9355 107.384 0.49781 91.7147 0.49781 72.939C0.49781 51.8541 16.5069 38.6837 16.5069 23.8344C16.5069 18.1883 15.34 15.2208 15.34 15.2208L15.5392 15.2905C15.5392 15.2905 18.723 16.5403 24.3521 16.5403C39.1764 16.5403 52.3391 0.511963 73.3998 0.511963C92.1537 0.511963 107.793 17.9682 110.908 21.816L111.386 21.7562C111.386 13.8914 117.755 7.51638 125.609 7.51638C133.465 7.51638 139.832 13.8914 139.832 21.7562H139.942C139.942 13.8914 146.31 7.54625 154.165 7.54625C162.02 7.54625 168.388 14.0617 168.388 21.9255H168.547C168.547 21.9255 176.193 10.4341 190.246 10.4341C209.06 10.4341 221.257 24.3851 239.392 24.3851C252.247 24.3851 256.06 20.3671 256.06 20.3671H1097.94C1097.94 20.3671 1101.75 24.3841 1114.61 24.3841C1132.74 24.3841 1144.94 10.4341 1163.75 10.4341C1177.81 10.4341 1185.46 21.9255 1185.46 21.9255H1185.62C1185.62 14.0617 1191.98 7.54625 1199.83 7.54625C1207.69 7.54625 1214.06 13.8914 1214.06 21.7562H1214.17C1214.17 13.8914 1220.53 7.51638 1228.39 7.51638C1236.24 7.51638 1242.61 13.8914 1242.61 21.7562L1243.09 21.816C1246.21 17.9692 1261.85 0.511963 1280.61 0.511963C1301.66 0.511963 1314.81 16.5403 1329.65 16.5403C1335.28 16.5403 1338.46 15.2905 1338.46 15.2905L1338.66 15.2208C1338.66 15.2208 1337.49 18.1983 1337.49 23.8344C1337.49 38.6738 1353.5 51.8541 1353.5 72.939C1353.5 91.7147 1336.06 107.374 1332.23 110.491L1332.29 110.97C1340.13 110.97 1346.5 117.346 1346.5 125.21C1346.5 133.075 1340.13 139.45 1332.29 139.45V139.56C1340.13 139.56 1346.47 145.935 1346.47 153.799C1346.47 161.663 1339.96 168.039 1332.11 168.039V168.199C1332.11 168.199 1343.59 175.853 1343.59 189.923C1343.59 208.759 1329.66 220.97 1329.66 239.127C1329.66 251.998 1333.67 255.815 1333.67 255.815L1333.66 460.195V460.195Z" stroke="black" stroke-width="1.025"/>
</svg>
