<svg width="1757" height="788" viewBox="0 0 1757 788" fill="none" xmlns="http://www.w3.org/2000/svg">
<path d="M1190.02 562.256C1192.91 559.978 1195.85 557.743 1198.7 555.413C1216.5 540.883 1236.34 530.066 1258.11 522.831C1269.1 519.174 1280.27 516.03 1291.33 512.542C1297.21 510.687 1303.08 508.769 1308.83 506.571C1315.76 503.923 1322.49 500.828 1328.03 495.669C1328.57 495.172 1329.21 494.758 1329.85 494.421C1331.05 493.8 1332.38 493.76 1333.26 494.764C1334.02 495.617 1334.88 496.903 1334.76 497.882C1334.51 499.791 1333.76 501.681 1332.98 503.478C1328.92 512.895 1322.9 520.989 1315.95 528.442C1308.52 536.412 1300.18 543.367 1291.71 550.2C1281.28 558.625 1271.96 568.094 1264.7 579.466C1260.68 585.763 1257.53 592.448 1255.93 599.752C1255.24 602.853 1254.84 606.104 1254.92 609.272C1255.06 615.101 1257.97 618.346 1263.66 619.525C1270.93 621.034 1277.51 619.22 1282.94 614.361C1286.76 610.927 1290.34 607.043 1293.33 602.858C1297.63 596.827 1301.58 590.554 1305.15 584.068C1310.03 575.208 1314.41 566.07 1319.02 557.061C1326.69 542.083 1335.08 527.555 1345.87 514.561C1366.49 489.731 1391.21 469.958 1419.86 455.122C1431.53 449.075 1444 445.146 1456.53 441.343C1463.84 439.123 1471.2 437.033 1478.45 434.595C1484.11 432.692 1489.87 431.709 1495.76 430.945C1502.36 430.093 1508.89 428.721 1515.43 427.543C1516.15 427.415 1516.85 427.119 1517.53 426.814C1518.71 426.287 1519.87 425.423 1519.4 424.065C1519.05 423.032 1518.09 421.907 1517.11 421.477C1516.11 421.038 1514.72 421.222 1513.55 421.43C1507.72 422.448 1501.9 423.532 1496.1 424.684C1493.16 425.272 1490.95 424.54 1488.88 422.223C1478.78 410.86 1476.36 397.982 1480.86 383.614C1483.28 375.933 1487.62 369.369 1492.6 363.191C1505.26 347.512 1520.59 335.429 1539.5 328.112C1547.33 325.087 1555.12 321.979 1562.86 318.736C1568.09 316.546 1573.27 314.217 1578.33 311.657C1587.14 307.196 1592.62 299.726 1596.28 290.783C1598.3 285.831 1598.42 280.728 1597.44 275.496C1596.39 269.923 1595.65 264.297 1594.63 258.72C1593.26 251.166 1594.69 244.014 1597.36 236.984C1600.68 228.304 1605.75 220.783 1612.29 214.239C1624.41 202.102 1637.89 191.804 1653.23 184.009C1661.16 179.986 1669.02 175.853 1676.8 171.566C1690.7 163.909 1703.43 154.547 1715.49 144.299C1726.9 134.611 1736 122.958 1743.56 110.091C1745.05 107.552 1745.92 104.655 1747.35 102.071C1748.15 100.619 1749.35 99.2994 1750.63 98.2364C1751.97 97.1259 1754.36 98.1172 1754.83 99.7984C1755.08 100.744 1755.21 101.729 1755.33 102.701C1757.35 118.506 1757.15 134.261 1753.41 149.793C1748.48 170.22 1737.96 187.626 1723.63 202.771C1717.69 209.045 1711.39 214.977 1705.23 221.037C1698.86 227.289 1693.05 234.004 1688.19 241.495C1686.59 243.971 1684.98 246.503 1683.79 249.188C1679.36 259.114 1679.45 268.693 1685.87 277.975C1690.93 285.28 1695.69 292.79 1700.29 300.39C1704.92 308.019 1708.42 316.166 1710.58 324.877C1714.01 338.662 1713.66 352.249 1708.84 365.67C1700.15 389.835 1684.72 408.506 1662.86 421.85C1659.96 423.626 1656.66 424.925 1653.37 425.878C1636.08 430.9 1618.64 435.333 1600.78 437.942C1598.12 438.329 1595.48 439.029 1592.92 439.871C1592.25 440.091 1591.5 441.441 1591.59 442.177C1591.69 442.917 1592.72 444.072 1593.42 444.125C1596.34 444.363 1599.36 444.7 1602.21 444.197C1611.67 442.514 1621.11 440.635 1630.5 438.565C1637 437.139 1643.4 435.326 1649.84 433.615C1652.25 432.972 1654.3 433.419 1655.8 435.395C1657.74 437.932 1659.95 440.386 1661.28 443.228C1667.32 456.039 1668.49 469.218 1663.78 482.795C1660.42 492.514 1655.43 501.19 1648.36 508.669C1641.55 515.872 1634.16 522.427 1626.06 528.116C1609.28 539.886 1592.38 551.463 1575.59 563.216C1567.91 568.594 1560.27 574.051 1552.81 579.739C1545.92 584.989 1539.68 590.974 1533.96 597.495C1529.38 602.721 1525.53 608.439 1522.58 614.748C1520.2 619.796 1519.63 625.087 1519.72 630.613C1519.82 636.863 1526.65 643.354 1534.08 642.493C1536.98 642.158 1539.92 641.376 1542.64 640.28C1555.32 635.182 1567.14 628.528 1577.35 619.368C1581.19 615.925 1584.47 611.855 1587.94 608.028C1589.1 606.751 1590.02 605.252 1591.19 603.991C1593.64 601.373 1596.82 601.937 1598.27 605.324C1599.03 607.143 1599.56 609.051 1599.85 611.003C1602.03 625.765 1599 639.476 1591.23 652.158C1585.77 661.094 1578.92 668.854 1570.56 675.181C1565.84 678.754 1560.91 682.041 1556.03 685.391C1549.92 689.581 1543.7 693.595 1537.66 697.886C1532.4 701.613 1527.93 706.357 1524.54 711.838C1521.5 716.731 1519.57 721.966 1519.19 727.808C1518.68 735.461 1517.08 742.938 1514.96 750.318C1513.71 754.679 1511.71 758.639 1508.7 761.961C1505.24 765.801 1501.47 769.37 1497.79 773.018C1495.38 775.401 1492.43 776.313 1489.05 776.362C1475.96 776.543 1462.88 776.965 1449.8 777.07C1424.37 777.271 1398.93 777.282 1373.5 777.438C1337.69 777.651 1301.89 777.91 1266.08 778.166C1230.77 778.417 1195.46 778.681 1160.16 778.954C1125.58 779.22 1091.02 779.512 1056.45 779.766C1024.35 780.003 992.248 780.195 960.148 780.434C921.627 780.72 883.109 781.038 844.588 781.329C808.787 781.596 772.981 781.84 737.176 782.103C702.112 782.365 667.052 782.648 631.987 782.906C596.679 783.161 561.366 783.388 526.057 783.643C490.252 783.903 454.451 784.175 418.645 784.447C384.078 784.714 349.506 785.002 314.939 785.255C282.591 785.491 250.246 785.672 217.903 785.904C178.639 786.187 139.382 786.471 100.119 786.804C71.974 787.044 43.825 787.377 15.6789 787.625C12.7159 787.647 9.75396 787.503 6.80712 787.192C5.34431 787.033 3.92993 786.573 2.65215 785.843C-0.614477 783.941 -0.907038 779.448 2.01665 777.078C2.96312 776.312 4.09559 775.773 5.16412 775.174C24.0751 764.537 39.2273 749.987 50.5539 731.48C57.2664 720.512 62.7137 708.871 68.1997 697.272C70.1953 693.057 71.4731 688.493 72.966 684.045C87.6881 640.204 108.808 599.603 134.84 561.461C148.214 541.863 162.12 522.699 177.666 504.738C192.415 487.702 208.709 472.276 225.534 457.342C254.832 431.335 288.247 412 323.818 396.103C327.871 394.293 332.01 392.67 336.132 391.02C351.475 384.877 366.916 378.965 382.154 372.573C399.686 365.225 416.753 356.869 433.633 348.122C442.515 343.522 449.916 337.035 457.24 330.384C470.89 317.99 481.818 303.412 491.728 287.978C500.793 273.846 509.925 259.757 519.127 245.714C528.108 232.015 538.916 219.829 550.752 208.555C553.961 205.501 557.417 202.659 561.001 200.052C572.807 191.473 585.24 183.917 598.387 177.547C613.509 170.217 629.12 164.102 645.003 158.649C653.168 155.845 661.293 152.923 669.491 150.225C681.041 146.425 691.923 141.219 702.337 135.01C712.471 128.968 721.021 121.321 726.701 110.757C729.39 105.757 732.386 100.926 735.096 95.9379C745.594 76.5945 759.556 60.0497 776.104 45.6996C792.61 31.3874 811.834 22.0665 832.766 16.1565C840.123 14.0751 847.605 12.4607 855.165 11.3212C861.979 10.2969 868.716 8.65057 875.398 6.94124C878.772 6.0798 881.156 7.17672 883.351 9.41222C884.481 10.5653 884.174 13.2766 882.715 13.9792C881.183 14.7166 879.534 15.328 877.872 15.6449C855.238 19.955 836.835 31.9194 820.313 47.3218C813.153 53.9982 807.967 62.0681 803.818 70.8338C798.837 81.3504 794.899 92.1868 792.76 103.711C790.915 113.655 788.244 123.44 784.666 132.93C779.821 145.775 772.396 157.081 763.916 167.786C754.57 179.588 743.187 188.926 729.953 195.971C721.244 200.603 712.325 204.841 703.496 209.242C694.885 213.537 686.223 217.731 677.664 222.126C671.243 225.422 665.636 229.881 660.615 235.052C659.07 236.64 657.67 238.374 656.251 240.083C650.141 247.466 648.284 255.813 650.781 265.069C652.785 272.477 653.457 280.181 652.767 287.824C651.59 301.123 646.157 311.993 634.567 319.259C631.852 320.962 629.06 322.547 626.302 324.183C621.843 326.818 617.29 329.311 612.945 332.126C610.018 334.024 607.014 335.497 603.679 336.594C593.272 340.018 583.699 345.096 575.389 352.311C572.984 354.399 570.916 356.892 568.813 359.302C568.2 360.001 567.694 361.059 567.689 361.956C567.683 362.799 568.247 363.797 568.858 364.437C569.266 364.863 570.431 365.156 570.863 364.883C573.347 363.309 575.899 361.755 578.077 359.804C583.085 355.32 588.633 351.681 594.545 348.554C595.413 348.097 596.341 347.753 597.269 347.421C598.302 347.051 598.549 347.878 598.591 348.555C599.704 366.466 592.434 380.775 579.198 392.201C573.61 397.022 567.395 401.137 561.335 405.386C553.249 411.054 544.946 416.415 537.575 423.046C530.175 429.702 523.847 437.238 518.736 445.776C516.567 449.399 514.788 453.179 514.76 457.56C514.735 461.39 516.75 464.275 520.505 465.058C522.387 465.452 524.433 465.515 526.339 465.251C531.265 464.575 535.87 462.748 540.371 460.702C565.53 449.261 585.662 431.945 600.784 408.816C603.754 404.268 606.685 399.687 609.432 395.006C622.313 373.048 638.769 354.175 658.101 337.675C668.829 328.519 679.804 319.754 691.927 312.503C693.189 311.748 694.415 310.739 695.79 310.429C696.802 310.198 698.393 310.577 699.056 311.3C699.727 312.036 699.84 313.556 699.698 314.673C699.591 315.546 698.819 316.411 698.172 317.12C697.174 318.211 696.075 319.218 694.941 320.17C685.354 328.209 678.107 338.179 671.454 348.625C666.506 356.394 663.023 364.834 660.842 373.761C658.621 382.865 656.69 392.042 654.659 401.195C652.891 409.171 650.494 416.932 647.114 424.381C643.399 432.566 638.294 439.773 632.16 446.309C625.805 453.078 618.266 458.102 609.832 461.872C601.948 465.395 594.046 468.883 586.217 472.526C583.545 473.77 580.988 475.311 578.542 476.957C577.374 477.746 576.386 478.992 575.706 480.244C575.319 480.955 575.398 482.323 575.858 482.976C576.309 483.613 577.658 484.18 578.363 483.963C580.938 483.163 583.439 482.102 585.903 481C590.179 479.087 594.402 477.056 598.661 475.101C599.068 474.916 599.694 474.73 599.986 474.913C600.278 475.096 600.49 475.803 600.383 476.178C596.669 489.22 592.883 502.237 589.164 515.278C584.799 530.596 575.788 542.631 563.231 552.181C556.325 557.431 549.027 562.132 541.006 565.393C535.1 567.795 528.896 569.61 522.679 571.093C503.681 575.619 484.505 578.95 464.852 578.556C462.691 578.516 460.498 579.038 458.362 579.511C457.845 579.624 457.225 580.544 457.171 581.138C457.121 581.728 457.578 582.575 458.083 582.95C458.84 583.513 459.809 583.993 460.732 584.095C464.643 584.531 468.53 584.938 472.516 584.826C486.882 584.415 501.005 582.245 515.031 579.369C517.911 578.777 519.829 579.579 521.58 581.523C524.308 584.543 525.965 588.029 526.213 592.168C526.549 597.709 525.699 602.969 523.165 607.968C520.464 613.31 517.138 618.228 512.719 622.239C506.875 627.547 500.788 632.588 494.783 637.717C490.838 641.081 486.771 644.306 482.899 647.754C477.707 652.374 473.108 657.555 469.695 663.639C466.565 669.225 465.24 675.125 467.628 681.419C469.272 685.749 471.86 689.347 476.217 691.11C479.381 692.391 482.761 693.719 486.106 693.894C508.847 695.092 528.987 688.506 545.793 672.831C551.478 667.529 555.531 660.963 558.112 653.676C560.908 645.776 563.201 637.7 565.672 629.689C567.708 623.088 569.451 616.389 571.74 609.88C577.463 593.617 586.371 579.202 597.563 566.12C618.023 542.215 643.412 525.059 671.569 511.639C686.956 506.262 700.109 497.074 712.695 487.074C718.276 482.64 723.191 477.365 728.39 472.453C729.465 471.437 730.394 470.272 731.511 469.31C732.522 468.439 734.57 468.507 735.709 469.281C736.835 470.047 737.177 471.198 737.179 472.483C737.179 472.971 737.166 473.486 737.023 473.95C733.47 485.752 730.574 497.781 724.336 508.619C718.156 519.351 711.299 529.566 703.06 538.853C698.804 543.652 694.747 548.638 690.796 553.692C682.493 564.323 678.431 576.55 677.144 589.9C676.531 596.271 675.406 602.606 674.211 608.901C671.557 622.865 664.979 634.852 655.33 645.199C653.477 647.185 651.513 649.063 649.646 651.037C649.346 651.355 649.278 651.899 649.105 652.339C649.54 652.436 650.039 652.715 650.404 652.597C652.743 651.829 655.151 651.174 657.354 650.111C668.746 644.611 679.321 637.849 688.834 629.461C708.156 612.431 721.86 591.629 730.669 567.502C737.693 548.258 744.613 528.977 751.786 509.792C758.443 491.987 765.328 474.265 774.318 457.457C781.084 444.803 788.761 432.728 797.28 421.189C810.343 403.493 826.354 388.958 844.877 377.178C852.373 372.412 859.897 367.638 867.713 363.443C873.348 360.419 876.863 356.035 878.791 350.219C879.95 346.718 880.797 343.097 881.538 339.477C887.248 311.726 899.82 287.438 918.66 266.415C929.962 253.8 943.076 243.399 958.429 236.013C965.321 232.697 972.243 229.44 979.152 226.153C983.386 224.14 987.635 222.155 991.847 220.099C1000.15 216.051 1007.38 210.568 1013.82 203.961C1018.7 198.955 1022.75 193.421 1025.5 186.975C1027.15 183.117 1028.94 179.315 1030.53 175.435C1037.22 159.151 1047.49 145.429 1060.22 133.414C1082.4 112.498 1108.23 98.1482 1137.57 90.0308C1145.21 87.9135 1153.01 86.8263 1160.94 86.5608C1164.38 86.4445 1167.81 85.9067 1171.26 85.6693C1174.7 85.4299 1178.16 85.3854 1181.61 85.146C1185.32 84.8941 1187.55 87.087 1189.52 89.742C1190.51 91.0686 1190.11 93.4436 1188.58 94.3235C1186.67 95.4175 1184.64 96.3061 1182.58 97.1143C1177.07 99.2819 1171.42 101.101 1166.03 103.524C1146.01 112.532 1128.32 124.941 1112.57 140.228C1101.55 150.936 1093.59 163.507 1088.8 178.112C1085.26 188.899 1081.92 199.755 1078.05 210.418C1072.44 225.838 1064.3 239.961 1054.56 253.11C1043.94 267.454 1030.2 278.319 1014.58 286.643C1005.65 291.398 1000.26 298.354 997.516 307.85C994.685 317.645 993.384 327.635 993.264 337.796C993.196 343.479 993.238 349.161 993.161 354.839C993.116 358.05 992.965 361.256 992.797 364.464C992.494 370.237 990.815 375.567 987.903 380.585C980.414 393.497 971.358 405.172 960.406 415.302C952.063 423.023 943.243 430.2 933.752 436.477C929.642 439.194 925.239 441.462 921.032 444.04C919.59 444.923 918.265 446.046 917.075 447.248C916.711 447.613 916.745 448.712 917.015 449.274C917.285 449.837 918.061 450.471 918.642 450.5C919.834 450.553 921.164 450.492 922.217 450.004C926.009 448.237 929.862 446.521 933.411 444.332C944.796 437.307 955.083 428.82 965 419.877C966.1 418.885 967.173 417.861 968.213 416.806C969.533 415.468 971.135 415.119 972.946 415.213C978.082 415.484 982.561 417.317 986.312 420.83C990.538 424.784 993.549 429.525 995.425 435.015C998.544 444.118 998.792 453.417 997.233 462.797C995.117 475.573 990.429 487.498 984.973 499.164C976.656 516.935 965.745 533.077 953.876 548.602C948.78 555.269 943.446 561.757 938.215 568.328C934.191 573.382 929.434 577.691 924.417 581.712C914.392 589.75 904.034 597.323 892.898 603.783C890.123 605.393 887.455 607.184 884.778 608.953C883.97 609.486 883.158 610.133 882.621 610.916C882.271 611.425 882.128 612.424 882.406 612.923C882.7 613.46 883.619 614.008 884.213 613.958C885.66 613.832 887.182 613.588 888.487 612.984C891.84 611.432 895.263 609.921 898.351 607.921C906.009 602.952 913.866 598.18 920.924 592.44C926.229 588.121 931.664 587.88 937.561 589.154C945.635 590.897 950.061 597.065 949.619 605.409C949.366 610.171 947.735 614.566 945.709 618.827C941.212 628.27 935.102 636.643 928.327 644.524C923.337 650.327 918.118 655.934 912.869 661.506C908.298 666.358 903.454 670.955 898.915 675.84C896.887 678.021 893.769 679.479 893.495 683.015C896.619 683.52 899.166 681.793 901.883 680.799C909.357 678.068 916.24 674.163 922.602 669.456C931.531 662.851 940.252 655.957 949.074 649.209C959.09 641.551 969.378 634.298 980.866 628.956C984.441 627.294 988.088 625.761 991.799 624.446C994.34 623.544 997.021 622.815 999.693 622.566C1004.6 622.109 1008.93 623.284 1011.92 627.779C1014.17 631.152 1014.33 631.041 1016.7 627.652C1021.72 620.455 1025 612.513 1026.59 603.907C1028.2 595.175 1029.57 586.398 1031.19 577.666C1034.37 560.521 1040.46 544.41 1048.9 529.195C1051.77 524.017 1054.94 518.995 1058.09 513.978C1071.51 492.598 1089.53 475.995 1111.47 463.724C1124.17 456.62 1137.2 450.096 1150.12 443.399C1165.02 435.68 1180.08 428.246 1194.87 420.334C1210.8 411.814 1225.68 401.647 1239.49 389.957C1241.92 387.89 1244.16 385.58 1246.46 383.367C1246.63 383.214 1246.8 382.88 1246.74 382.737C1246.66 382.561 1246.34 382.408 1246.11 382.397C1245.63 382.367 1245.13 382.363 1244.65 382.477C1238.32 384.01 1231.9 383.565 1225.49 383.296C1224.75 383.264 1224.01 383.195 1223.28 383.066C1209.7 380.652 1203.68 370.701 1204.78 359.5C1205.26 354.538 1206.7 349.847 1208.75 345.31C1213.11 335.667 1219.95 327.928 1227.5 320.727C1235.57 313.026 1244.47 306.382 1253.85 300.389C1264.04 293.874 1274.42 287.649 1284.54 281.025C1292.59 275.759 1300.57 270.34 1308.22 264.511C1317.28 257.606 1325.47 249.722 1331.93 240.214C1334.31 236.711 1336.19 233.005 1337.25 228.882C1343.6 204.15 1356.48 183.031 1373.36 164.205C1385.96 150.161 1400.43 138.258 1415.97 127.593C1431.46 116.955 1447.89 107.892 1464.31 98.8081C1478.77 90.806 1493.34 82.9503 1507.48 74.3988C1523.4 64.7668 1537.65 52.9507 1549.86 38.7993C1555.69 32.0424 1560.78 24.7681 1565.01 16.9123C1566.73 13.7049 1568.51 10.4781 1567.45 6.42961C1566.84 4.10496 1568.58 2.24155 1570.19 0.669822C1571.53 -0.642215 1574.54 0.0874554 1575.23 1.86752C1575.58 2.77064 1575.84 3.75902 1575.88 4.72318C1576.06 9.16512 1576.19 13.609 1576.28 18.0519C1576.48 27.3001 1574.55 36.182 1571.76 44.9419C1566.41 61.7706 1558.45 77.3232 1549 92.1723C1540.36 105.755 1530.4 118.308 1519.65 130.274C1504.3 147.385 1487.65 163.219 1470.98 179.027C1464.71 184.971 1458.64 191.116 1452.61 197.314C1442.39 207.843 1436.18 220.643 1432.17 234.598C1430.54 240.285 1429.11 246.038 1427.71 251.79C1422.33 273.852 1411.49 292.992 1396.89 310.203C1387.58 321.179 1377.31 331.076 1365.7 339.604C1362.07 342.269 1358.23 344.305 1353.84 345.427C1342.14 348.421 1330.52 351.796 1318.43 352.971C1317.01 353.11 1315.58 353.732 1314.28 354.378C1313.76 354.631 1313.3 355.565 1313.33 356.168C1313.36 356.782 1313.87 357.676 1314.4 357.916C1315.49 358.4 1316.73 358.668 1317.93 358.768C1323.92 359.271 1329.71 357.88 1335.5 356.667C1340.08 355.708 1344.6 354.45 1349.13 353.263C1351.19 352.728 1352.96 353.043 1354.72 354.275C1364.84 361.341 1370.67 370.974 1371.91 383.239C1373.25 396.56 1371.02 409.3 1365.24 421.418C1359.33 433.829 1351.08 444.548 1341.58 454.356C1333.3 462.894 1324.16 470.428 1314.56 477.413C1300.14 487.896 1284.8 496.84 1268.99 505.005C1258.46 510.44 1247.88 515.765 1237.44 521.367C1223.89 528.646 1211.23 537.211 1200.54 548.396C1197.31 551.78 1194.36 555.455 1191.44 559.11C1190.72 560.001 1190.58 561.341 1190.17 562.478C1189.98 562.614 1189.79 562.75 1189.6 562.886C1189.75 562.649 1189.89 562.454 1190.02 562.256Z" fill="#CEFD3B"/>
<path d="M678.541 415.954C679.018 416.059 679.498 416.145 680.326 416.307C682.419 415.91 684.89 415.646 687.247 414.965C695.519 412.565 703.813 410.207 711.982 407.483C719.726 404.901 726.943 401.123 733.716 396.541C746.678 387.771 758.086 377.313 767.837 365.057C779.556 350.324 789.285 334.357 797.495 317.429C802.876 306.337 808.27 295.248 813.955 284.313C817.03 278.41 820.445 272.691 824.18 267.184C830.456 257.921 838.157 249.885 847.404 243.58C851.457 240.815 854.836 237.47 858.253 234.088L858.477 233.866C859.166 233.186 859.959 232.325 860.091 231.456C860.26 230.351 860.068 229.017 859.554 228.027C858.896 226.756 856.906 226.511 855.607 227.377C854.384 228.191 853.242 229.14 852.13 230.105C846.706 234.829 840.787 238.731 834.259 241.82C827.803 244.875 821.506 248.283 815.242 251.721C791.533 264.734 771.738 282.245 755.468 303.83C745.938 316.472 737.726 329.917 730.322 343.885C724.896 354.122 719.589 364.431 713.906 374.523C708.944 383.333 703.429 391.827 697.019 399.684C693.538 403.958 689.66 407.659 683.804 408.46C682.37 408.657 680.913 409.225 679.647 409.938C678.632 410.511 677.773 411.483 677.052 412.436C676.173 413.597 677.107 415.633 678.541 415.954Z" fill="#CEFD3B"/>
<path d="M1138.27 267.435C1140.99 267.418 1143.7 267.463 1146.41 267.48C1162.09 267.512 1177.27 264.471 1192.27 260.193C1197.54 258.684 1202.43 256.454 1207.04 253.502C1215.78 247.888 1223.82 241.341 1231.67 234.558C1249.22 219.379 1261.95 200.885 1269.53 178.899C1270.65 175.634 1271.61 172.311 1272.81 169.075C1275.47 161.905 1277.91 154.636 1280.99 147.657C1289.95 127.395 1302.05 109.159 1317.13 92.9127C1319.15 90.744 1321.01 88.4204 1322.76 86.0434C1323.63 84.8777 1324.28 83.4823 1324.71 82.0927C1325.57 79.2855 1323.1 76.4366 1320.25 76.9017C1319.06 77.0965 1317.91 77.6237 1316.74 77.9745C1304.35 81.6887 1293.01 87.6694 1281.98 94.2538C1267.89 102.666 1255.16 112.735 1245.07 125.844C1239.77 132.716 1235.45 140.194 1231.36 147.809C1227.15 155.665 1222.32 163.105 1216.95 170.204C1212.45 176.15 1207.23 181.352 1201.18 185.723C1193.53 191.235 1185.35 195.771 1176.68 199.425C1169.86 202.298 1163.02 205.117 1156.17 207.91C1143.15 213.222 1130.08 218.412 1117.86 225.498C1105.4 232.735 1093.87 241.138 1084.41 252.116C1073.9 264.316 1067.64 278.141 1068.45 294.671C1069.08 307.746 1075.44 316.952 1086.8 323.01C1088.65 323.994 1090.41 324.351 1092.41 323.361C1094.12 322.518 1095.94 321.856 1097.73 321.199L1097.9 321.139C1102.06 319.619 1106.19 317.947 1110.45 316.746C1113 316.022 1115.77 315.995 1118.44 315.835C1118.99 315.801 1120.02 316.55 1120.03 316.972C1120.07 317.835 1119.84 319.041 1119.24 319.531C1118.11 320.446 1116.72 321.071 1115.35 321.593C1112.58 322.651 1109.78 323.601 1106.97 324.516C1090.99 329.73 1076.94 338.115 1064.77 349.735C1046.31 367.36 1035.32 389.117 1029.61 413.666C1027.54 422.532 1026.39 431.632 1025.2 440.673C1024.65 444.801 1024.95 449.053 1025.01 453.244C1025.03 454.828 1026.34 456.03 1027.79 456.263C1029.24 456.495 1030.86 455.779 1031.46 454.38C1032.34 452.347 1033.03 450.231 1033.82 448.16C1041.18 428.931 1052.81 413.091 1070.43 402.001C1074.61 399.373 1078.66 396.526 1082.97 394.137C1097 386.361 1111.09 378.716 1125.2 371.088C1136.72 364.857 1147.93 358.154 1158.46 350.347C1168.65 342.801 1177.78 334.214 1185 323.709C1189.35 317.373 1193.25 310.765 1195.23 303.289C1196.28 299.279 1197.1 295.048 1197.05 290.929C1196.97 282.092 1192 275.696 1185.39 270.399C1184.16 269.416 1182.86 269.258 1181.25 269.624C1172.1 271.707 1162.83 272.995 1153.49 273.871C1146.56 274.521 1139.7 274.164 1132.92 272.579C1131.14 272.165 1129.61 270.441 1130.27 269.636C1130.98 268.766 1132.06 267.923 1133.12 267.692C1134.78 267.328 1136.55 267.445 1138.27 267.435Z" fill="#CEFD3B"/>
</svg>
