<svg width="115" height="96" viewBox="0 0 115 96" fill="none" xmlns="http://www.w3.org/2000/svg">
<path d="M56.1292 95.6561C57.6277 95.6182 59.1341 95.5932 60.6395 95.5383C61.721 95.4949 62.8017 95.432 63.8809 95.3496C64.9292 95.2747 65.9761 95.1808 67.021 95.068C68.9997 94.8523 70.9724 94.5877 72.9372 94.2571C76.7315 93.617 80.4672 92.7413 84.1124 91.4951C86.0443 90.834 87.9316 90.0611 89.7462 89.1185C91.0587 88.4365 92.3205 87.6726 93.4878 86.7589C94.507 85.96 95.4426 85.0763 96.1874 84.0068C96.6814 83.3136 97.0553 82.5415 97.293 81.7231C97.644 80.4799 97.5665 79.2616 97.1171 78.0603C96.7531 77.0867 96.1785 76.2459 95.4894 75.48C94.8418 74.7708 94.1212 74.1325 93.3397 73.5758C91.881 72.5193 90.303 71.6825 88.6564 70.9665C87.6778 70.5414 86.6824 70.1566 85.6725 69.8131C85.3613 69.7063 85.051 69.5935 84.7447 69.4736C83.6609 69.0443 82.5324 68.7766 81.3989 68.525C80.4354 68.3103 79.4738 68.0836 78.5044 67.8929C77.351 67.6662 76.1926 67.4585 75.0332 67.2698C74.0121 67.103 72.9849 66.9722 71.9598 66.8284C71.6496 66.7855 71.3373 66.7545 71.0261 66.7186C70.9638 66.711 70.901 66.7077 70.8382 66.7086C70.4892 66.7186 70.2844 66.9483 70.3232 67.2928C70.3301 67.3537 70.354 67.4136 70.3749 67.4725C70.3987 67.5424 70.342 67.5664 70.3062 67.5654C70.0875 67.5574 69.8678 67.5444 69.65 67.5254C69.6038 67.5202 69.5612 67.4977 69.5307 67.4625C69.473 67.3826 69.5625 67.3547 69.6013 67.3197C70.0477 66.9223 70.4971 66.5299 70.9436 66.1334C71.0181 66.0665 71.0818 66.0635 71.1335 66.1474C71.2429 66.3241 71.404 66.3451 71.5849 66.3072C71.6615 66.2902 71.7361 66.2632 71.8117 66.2443C72.4023 66.0965 72.9879 66.0845 73.5765 66.2702C73.9315 66.3831 74.2815 66.3431 74.6345 66.2133C75.0899 66.0465 75.5582 65.9137 76.0216 65.7689C76.1488 65.729 76.2622 65.7649 76.3835 65.8169C76.5983 65.9097 76.819 65.9936 77.0428 66.0565C77.4982 66.1833 77.9456 66.0785 78.3911 65.9866C78.6526 65.9317 78.9111 65.8668 79.1706 65.8069C79.286 65.7809 79.3714 65.8189 79.4699 65.8918C79.797 66.1344 80.1321 66.3681 80.4771 66.5848C80.9962 66.9103 81.5659 66.9672 82.1555 66.8454C82.9112 66.6896 83.639 66.438 84.341 66.1234C85.3314 65.6791 86.3585 65.3446 87.3877 65.009C87.7297 64.8972 88.0718 64.7794 88.4049 64.6426C89.612 64.1513 90.8518 63.7538 92.0778 63.3185C93.2163 62.914 94.3469 62.4906 95.4844 62.0862C96.4897 61.7297 97.5039 61.3992 98.5061 61.0347C100.274 60.3906 102.069 59.8215 103.824 59.1384C103.984 59.0765 104.144 59.0116 104.304 58.9467C104.422 58.8978 104.54 58.8369 104.59 58.715C104.657 58.5583 104.789 58.4754 104.914 58.3825C106.874 56.9206 108.514 55.1512 109.878 53.1231C110.998 51.446 111.915 49.6409 112.61 47.7458C113.292 45.8985 113.79 43.9879 114.097 42.0419C114.254 41.0633 114.356 40.0748 114.431 39.0852C114.539 37.6822 114.528 36.2812 114.48 34.8792C114.439 33.951 114.36 33.0248 114.243 32.1032C114.023 30.2413 113.666 28.3983 113.175 26.5891C112.272 23.2228 110.938 19.9882 109.208 16.9659C108.008 14.8566 106.609 12.868 105.031 11.0274C102.378 7.94378 99.3106 5.37147 95.7071 3.47019C93.4999 2.29501 91.1296 1.45921 88.6753 0.990745C88.2905 0.917849 87.9017 0.868919 87.5139 0.810004C87.4523 0.800018 87.3867 0.784041 87.327 0.796024C86.8776 0.880902 86.4182 0.825981 85.9688 0.899875C85.5362 0.969775 85.1037 1.04667 84.6702 1.11756C82.766 1.42612 80.8789 1.81956 78.9896 2.206C77.6225 2.4856 76.2612 2.79216 74.896 3.08075C73.317 3.41527 71.7351 3.73981 70.1551 4.07533C68.8217 4.35892 67.4883 4.64451 66.157 4.94108C64.6426 5.2786 63.1322 5.63909 61.6168 5.96961C60.9198 6.12239 60.2835 6.41897 59.6411 6.70755C59.342 6.84824 59.0687 7.03865 58.8328 7.27075C58.3137 7.76105 57.8623 8.30127 57.5819 8.96831C57.5213 9.11111 57.4278 9.17602 57.2667 9.20298C56.7874 9.28286 56.3052 9.36075 55.8389 9.49257C54.41 9.89499 53.1989 10.6429 52.2891 11.8412C52.1847 11.979 52.0694 12.1178 52.0048 12.2746C51.8924 12.5442 51.6906 12.691 51.442 12.8118C50.8921 13.0814 50.3493 13.363 49.8024 13.6396C49.691 13.6965 49.5766 13.7505 49.4673 13.8114C49.3857 13.8573 49.2843 13.8953 49.2346 13.9662C49.0665 14.2028 48.811 14.2817 48.5654 14.3826C47.8823 14.6632 47.2172 14.9847 46.5887 15.3741C45.9623 15.7626 45.304 16.1031 44.7184 16.5554C44.5941 16.6513 44.4649 16.7432 44.3515 16.851C42.9724 18.1671 41.6529 19.5342 40.589 21.1309C39.5576 22.677 38.6965 24.331 38.0207 26.0638C37.2273 28.1051 36.6523 30.2253 36.3054 32.3888C36.125 33.5084 35.9946 34.6356 35.9147 35.7669C35.8103 37.3082 35.7973 38.8544 35.8759 40.3973C35.9365 41.7184 36.0917 43.0335 36.2915 44.3416C36.7934 47.5987 37.6924 50.7815 38.9683 53.8181C39.1383 54.2245 39.3242 54.6249 39.5012 55.0283C39.5291 55.0922 39.5111 55.1522 39.4435 55.1841C39.3872 55.2112 39.3294 55.2352 39.2705 55.256C38.8489 55.3978 38.478 55.6335 38.1181 55.8881C37.972 55.9812 37.851 56.1091 37.7661 56.2606C37.6219 56.5412 37.3793 56.7099 37.1029 56.8387C36.6785 57.0459 36.2217 57.1779 35.7526 57.2292C34.9094 57.3091 34.0633 57.367 33.2151 57.2851C33.1525 57.2791 33.0898 57.2761 33.0272 57.2731C31.9145 57.2112 30.8029 57.1313 29.6892 57.0934C28.9853 57.0694 28.2783 57.1063 27.5724 57.1183C27.4471 57.1203 27.3218 57.1303 27.1965 57.1343C26.3494 57.1563 25.5052 57.2262 24.662 57.3141C23.9292 57.3909 23.1933 57.4519 22.4625 57.5437C21.8093 57.6256 21.158 57.7265 20.5097 57.8433C19.3831 58.046 18.2585 58.2597 17.136 58.4814C14.0688 59.0833 11.0881 60.0661 8.26263 61.4072C6.96604 62.0223 5.77191 62.8072 4.60955 63.642C4.18498 63.9475 3.83097 64.331 3.51279 64.7414C2.80782 65.6501 2.1426 66.5838 1.57385 67.5873C0.907659 68.7676 0.458215 70.0238 0.282221 71.3629C0.138044 72.4633 0.181792 73.5678 0.479094 74.6462C0.701822 75.4511 0.915655 76.2599 1.19406 77.0448C1.79662 78.7434 2.70242 80.2622 3.97615 81.5473C5.25385 82.8375 6.66578 83.9609 8.16323 84.9804C10.3129 86.4433 12.5959 87.6646 14.9594 88.735C18.8293 90.4885 22.8474 91.8106 26.9668 92.8292C30.1787 93.6265 33.4353 94.2294 36.7191 94.6346C37.9491 94.7864 39.18 94.9162 40.415 95.017C41.4003 95.0969 42.3867 95.1538 43.3731 95.2118C44.2978 95.2657 45.2235 95.2916 46.1483 95.2877C47.1684 95.2854 48.1882 95.3207 49.2057 95.3935C50.7092 95.4974 52.2136 95.5653 53.72 95.5882C54.5204 95.6002 55.3208 95.6322 56.1292 95.6561ZM38.9524 25.6444C38.9486 25.6751 38.9443 25.7057 38.9394 25.7363C38.9365 25.7513 38.9305 25.7653 38.9265 25.7802C38.9166 25.7583 38.8947 25.7303 38.9007 25.7163C38.9126 25.6924 38.9424 25.6764 38.9643 25.6564C38.9732 25.5825 38.9543 25.4946 39.0577 25.4677C39.0766 25.3778 39.0816 25.2789 39.1184 25.1971C39.2795 24.8376 39.4436 24.4801 39.6205 24.1286C40.5234 22.3312 41.6201 20.6676 42.9803 19.1857C43.1504 19.0009 43.3084 18.8052 43.5431 18.6894C43.6226 18.6494 43.6813 18.5646 43.7449 18.4947C44.0303 18.1811 44.3107 17.8626 44.6011 17.552C44.8596 17.2754 45.1589 17.0457 45.485 16.851C45.6729 16.7382 45.8619 16.6253 46.0438 16.5015C48.1786 15.0516 50.5243 14.1749 53.0936 13.9492C54.4401 13.8288 55.7966 13.894 57.1255 14.1429C59.2295 14.5383 61.1923 15.3042 63.0388 16.3867C65.3118 17.7188 67.2716 19.4283 69.0126 21.3975C70.6453 23.2449 72.0185 25.276 73.1838 27.4488C74.9905 30.817 76.2264 34.3919 76.9851 38.1365C77.001 38.2134 77.011 38.2923 77.011 38.3702C77.012 38.4381 76.9751 38.492 76.9035 38.502C76.6241 38.5419 76.3437 38.5759 76.0643 38.6158C75.8943 38.6398 75.8565 38.6837 75.8714 38.8695C75.9172 39.4506 75.9659 40.0318 76.0226 40.612C76.0504 40.8936 76.0971 41.1742 76.1379 41.4538C76.2383 42.1398 76.3279 42.8268 76.3587 43.5208C76.4044 44.5443 76.3964 45.5679 76.3596 46.5924C76.3487 46.892 76.3437 47.1916 76.3209 47.4901C76.2771 48.0713 76.2145 48.6505 76.1747 49.2326C76.119 50.0345 76.0434 50.8343 75.8814 51.6222C75.8277 51.8828 75.7432 52.1375 75.6656 52.3931C75.6248 52.5289 75.5632 52.6577 75.5214 52.7925C75.2031 53.815 74.8473 54.8252 74.4545 55.8212C74.0737 56.8048 73.6859 57.7864 73.1967 58.723C72.5427 59.9631 71.799 61.1533 70.9714 62.2839C69.1359 64.8153 66.7993 66.7136 63.9098 67.9099C63.5906 68.0417 63.2634 68.1515 62.9373 68.2664C62.8498 68.2963 62.7564 68.3163 62.6639 68.3263C62.5684 68.3383 62.4243 68.1935 62.4213 68.0766C62.4193 67.9828 62.4998 67.9538 62.5784 67.9298C62.6677 67.9009 62.7562 67.8696 62.8438 67.836C64.0688 67.3836 65.2412 66.8304 66.325 66.0875C68.2192 64.7893 69.7683 63.1567 71.047 61.2584C72.4659 59.1524 73.4791 56.8547 74.1861 54.4182C74.635 52.8597 74.9585 51.2675 75.1535 49.657C75.4154 47.5608 75.4797 45.4444 75.3454 43.3361C75.2797 42.2509 75.1669 41.1691 75.0074 40.0937C74.8085 38.7701 74.5379 37.4584 74.197 36.1644C73.3071 32.7742 71.9757 29.5738 70.1263 26.5961C68.5453 24.0497 66.6501 21.773 64.3284 19.8687C62.8011 18.6155 61.1416 17.579 59.319 16.8111C57.5074 16.0454 55.5711 15.621 53.6066 15.5589C52.7588 15.5392 51.911 15.6017 51.0751 15.7456C49.4294 16.0102 47.8445 16.5697 46.3958 17.3972C45.9185 17.6698 45.4472 17.9514 44.9819 18.244C44.5832 18.4957 44.1964 18.7653 43.8613 19.1028C43.5192 19.4503 43.1702 19.7918 42.8282 20.1383C42.2887 20.6891 41.7827 21.272 41.3128 21.8838C40.549 22.8852 39.8733 23.9513 39.2934 25.0702C39.2218 25.2051 39.187 25.3658 39.0468 25.4577C39.0398 25.5326 39.0478 25.6155 38.9524 25.6444ZM113.934 36.41C113.9 37.1919 113.866 37.821 113.848 38.4511C113.823 39.3188 113.726 40.1806 113.617 41.0394C113.489 42.0395 113.31 43.0321 113.078 44.0131C112.474 46.5724 111.574 49.0169 110.265 51.3027C108.725 53.9888 106.751 56.2855 104.231 58.0929C104.142 58.1578 104.046 58.2218 103.983 58.3076C103.893 58.4315 103.772 58.4924 103.64 58.5423C103.156 58.726 102.673 58.9148 102.186 59.0875C100.959 59.5209 99.7292 59.9483 98.5002 60.3757C97.4035 60.7581 96.3057 61.1326 95.212 61.521C94.0009 61.9524 92.7937 62.3968 91.5837 62.8331C90.5953 63.1896 89.605 63.5401 88.6167 63.8956C88.0847 64.0874 87.5596 64.2951 87.0237 64.4718C86.0254 64.8023 85.0301 65.1339 84.0686 65.5662C83.482 65.8308 82.8745 66.0455 82.247 66.1953C81.6604 66.3341 81.0976 66.3062 80.5845 65.9317C80.3578 65.7649 80.1063 65.6311 79.8676 65.4794C79.803 65.4384 79.7334 65.3955 79.6847 65.3376C79.6403 65.2819 79.5824 65.2387 79.5165 65.2122C79.4507 65.1856 79.3792 65.1765 79.3088 65.1858C79.1378 65.1998 78.9648 65.2117 78.7967 65.2457C78.5511 65.2966 78.3115 65.3755 78.0659 65.4254C77.5618 65.5303 77.0676 65.5253 76.6112 65.2377C76.5714 65.2127 76.5267 65.1968 76.4859 65.1748C76.4092 65.134 76.3251 65.1094 76.2386 65.1023C76.1521 65.0953 76.065 65.106 75.9828 65.1339C75.414 65.3096 74.8552 65.5233 74.2576 65.5892C74.023 65.751 73.7833 65.6861 73.5358 65.6212C73.1708 65.5243 72.799 65.4514 72.4192 65.5063C72.1716 65.5423 71.926 65.5972 71.6794 65.6421C71.6334 65.6492 71.5868 65.6525 71.5402 65.6521C71.5324 65.6516 71.5247 65.6493 71.5179 65.6456C71.511 65.6418 71.505 65.6365 71.5004 65.6301C71.4944 65.6222 71.4984 65.6002 71.5054 65.5902C71.564 65.5183 71.6257 65.4474 71.6854 65.3755C72.0891 64.8922 72.5087 64.4229 72.8925 63.9246C74.4913 61.8476 75.6676 59.5409 76.5416 57.0744C77.3566 54.7553 77.9005 52.3489 78.1623 49.9037C78.3314 48.3659 78.4179 46.8261 78.404 45.2803C78.401 44.9188 78.3662 44.5563 78.3592 44.1948C78.3314 42.7739 78.1723 41.3669 77.9695 39.9619C77.6614 37.8413 77.1819 35.7493 76.5356 33.7069C75.4031 30.122 73.8092 26.7648 71.6545 23.6812C70.0944 21.4494 68.2858 19.4483 66.1649 17.7388C64.2528 16.197 62.1608 14.9737 59.839 14.1609C58.5295 13.7015 57.1862 13.389 55.8041 13.2821C54.5035 13.1823 53.201 13.1883 51.9103 13.4299C51.8646 13.4379 51.8169 13.4349 51.7701 13.4339C51.7552 13.4339 51.7403 13.4239 51.7253 13.4189C51.7323 13.406 51.7343 13.389 51.7453 13.382C51.8357 13.3201 51.9252 13.2572 52.0177 13.1993C52.2233 13.0801 52.3896 12.9031 52.496 12.69C52.7396 12.1807 53.1095 11.7753 53.5281 11.4148C54.2744 10.7574 55.1677 10.2909 56.1322 10.0548C56.3917 9.99285 56.6502 9.92095 56.9137 9.889C57.219 9.85105 57.5203 9.73322 57.8404 9.84805C57.9966 9.90298 58.1556 9.76018 58.1725 9.59642C58.1813 9.55016 58.1806 9.50261 58.1705 9.45662C58.1129 9.27188 58.1914 9.1201 58.271 8.96332C58.5225 8.46204 58.8984 8.06161 59.3011 7.68515C59.5083 7.49074 59.7466 7.33275 60.0061 7.21782C60.6225 6.94521 61.254 6.70755 61.9102 6.54978C62.9612 6.29714 64.0172 6.06248 65.0721 5.82382C66.2494 5.5582 67.4257 5.28459 68.606 5.03395C70.0159 4.73238 71.4318 4.45478 72.8428 4.15921C75.6964 3.55907 78.5461 2.94494 81.4018 2.35379C82.5373 2.11813 83.6818 1.9264 84.8223 1.7187C85.3781 1.61785 85.9369 1.53796 86.4898 1.42412C86.7692 1.36621 87.0357 1.28632 87.3121 1.42712C87.3648 1.45408 87.4354 1.4431 87.498 1.45109C88.9279 1.65054 90.3364 1.98145 91.706 2.43967C93.8638 3.1732 95.9176 4.18488 97.8161 5.44936C100.876 7.46846 103.485 9.97487 105.731 12.8697C107.871 15.637 109.625 18.684 110.946 21.9268C111.942 24.345 112.695 26.8573 113.193 29.426C113.457 30.7871 113.671 32.1561 113.762 33.5411C113.83 34.5467 113.883 35.5532 113.934 36.41ZM50.2946 34.6126L50.3393 33.4403C50.3502 33.1567 50.3503 32.8711 50.3771 32.5895C50.4745 31.539 50.6068 30.4925 50.8285 29.46C51.1914 27.7724 51.7274 26.1487 52.5327 24.6209C53.2506 23.2578 54.1485 22.0326 55.3049 21.0081C56.3818 20.0554 57.6018 19.3684 58.9949 19.0019C59.494 18.8647 60.0057 18.7791 60.5221 18.7463C60.73 18.7353 60.893 18.6644 60.9189 18.4268C60.9278 18.3429 60.9676 18.3179 61.0402 18.3569C61.1506 18.4148 61.2599 18.4767 61.3683 18.5406C63.5011 19.7988 65.3277 21.4215 66.9435 23.2898C68.5463 25.1431 69.8737 27.1842 70.9794 29.3711C71.9515 31.2968 72.7428 33.3093 73.3429 35.3825C73.6641 36.4869 73.9285 37.6043 74.1513 38.7327C74.189 38.9254 74.1761 38.9464 73.9922 38.9993C73.5547 39.1221 73.1132 39.235 72.6797 39.3698C71.8522 39.6188 71.0675 39.9936 70.353 40.4812C69.474 41.0903 68.8207 41.8762 68.4688 42.8947C68.254 43.5188 68.07 44.1539 67.8721 44.784C67.8065 44.9937 67.7528 45.2104 67.6673 45.4131C67.3332 46.207 66.7873 46.7751 65.9472 47.0408C65.452 47.1975 64.9508 47.3264 64.4407 47.4043C63.3559 47.57 62.2701 47.7278 61.1813 47.8656C60.0299 48.0114 58.8785 48.1522 57.737 48.3599C57.1991 48.4567 56.6502 48.5226 56.1531 48.7823C56.0821 48.8122 56.0038 48.8199 55.9284 48.8042C55.3726 48.7094 54.8167 48.6085 54.2619 48.5077C54.0938 48.4767 53.895 48.4847 53.7687 48.3928C53.6425 48.3 53.5838 48.1072 53.5052 47.9535C51.9386 44.8578 50.9278 41.5089 50.5193 38.0606C50.3841 36.9323 50.3433 35.8009 50.2946 34.6126ZM36.8484 38.6518C36.8412 37.5323 36.8942 36.4133 37.0074 35.2996C37.1277 34.1562 37.3008 33.0199 37.5424 31.8945C38.0763 29.416 38.9066 27.0464 40.1316 24.8246C40.8943 23.4406 41.7911 22.1504 42.871 20.9941C42.9774 20.8793 43.0827 20.7534 43.214 20.6745C43.3681 20.5827 43.4785 20.4599 43.5938 20.33C44.1268 19.7309 44.6438 19.1118 45.3906 18.7583C45.4462 18.7313 45.494 18.6874 45.5457 18.6514C47.289 17.4288 49.2916 16.6302 51.3953 16.3188C51.7512 16.2649 52.1122 16.2459 52.4721 16.2129C52.498 16.2099 52.5258 16.2269 52.5536 16.2349C52.5327 16.2569 52.5159 16.2848 52.491 16.3018C52.4388 16.3361 52.3846 16.3675 52.3289 16.3957C51.5891 16.7871 50.916 17.2734 50.2776 17.8136C49.2026 18.7352 48.2098 19.7493 47.3106 20.8443C46.482 21.8352 45.7722 22.9204 45.1957 24.0777C44.5156 25.4517 44.0313 26.8976 43.6634 28.3845C43.4009 29.441 43.1842 30.5065 43.1265 31.5949C43.0637 32.839 43.088 34.0859 43.1991 35.3265C43.2051 35.3885 43.213 35.4524 43.2279 35.5133C43.2786 35.719 43.4248 35.8508 43.577 35.8328C43.7549 35.8129 43.8613 35.6401 43.8394 35.3994C43.8186 35.1798 43.7778 34.9621 43.7718 34.7424C43.7509 34.0334 43.736 33.3244 43.731 32.6154C43.7251 31.8415 43.7629 31.0707 43.8931 30.3067C44.087 29.1724 44.3605 28.057 44.7085 26.9605C45.2166 25.3598 45.8997 23.843 46.8641 22.464C47.9984 20.8525 49.3405 19.3992 50.8553 18.1422C51.5759 17.5311 52.3799 17.0267 53.2427 16.6443C53.4863 16.5385 53.7279 16.4216 53.9586 16.2888C54.0671 16.2257 54.1933 16.2004 54.3175 16.2169C54.6138 16.2469 54.9122 16.2689 55.2065 16.3138C56.4027 16.4965 57.575 16.7791 58.6996 17.2365C59.2226 17.4492 59.7346 17.6898 60.2487 17.9225C60.3133 17.9524 60.4167 18.0233 60.4108 18.0593C60.3899 18.1781 60.2666 18.1452 60.1801 18.1621C60.1493 18.1681 60.1174 18.1651 60.0866 18.1701C59.7774 18.2191 59.4642 18.254 59.1589 18.3219C57.8533 18.6164 56.6259 19.1888 55.5595 20.0005C54.2957 20.9472 53.2944 22.1295 52.4731 23.4715C51.6637 24.7946 51.0721 26.2156 50.6326 27.7025C50.0629 29.6327 49.7864 31.6099 49.7059 33.615C49.6442 35.1298 49.7168 36.6407 49.8998 38.1455C50.0619 39.4746 50.3085 40.7897 50.6446 42.0869C51.3197 44.6931 52.2961 47.1766 53.6504 49.5042C53.9745 50.0624 54.3176 50.6087 54.6507 51.1619C54.7193 51.2737 54.7034 51.3336 54.598 51.3935C54.4886 51.4554 54.3782 51.5144 54.2678 51.5743C54.1197 51.6542 54.0919 51.6512 54.0024 51.5114C53.4772 50.6884 53.0238 49.8214 52.6471 48.9201C52.4343 48.4108 52.5029 48.4288 51.9789 48.5286C51.8864 48.5466 51.791 48.5466 51.6995 48.5686C50.0161 48.961 48.5117 49.698 47.2459 50.8952C47.2121 50.9282 47.1784 50.9701 47.1376 50.9841C47.1038 50.9951 47.0332 50.9861 47.0202 50.9622C46.9602 50.8523 46.9083 50.7382 46.8651 50.6206C46.4664 49.5422 46.0528 48.4697 45.677 47.3853C45.1892 45.9876 44.7871 44.5614 44.4728 43.1144C44.2949 42.2826 44.1715 41.4418 44.0452 40.601C44.0214 40.4461 43.9885 40.2927 43.9468 40.1417C43.9239 40.0558 43.8474 40.0258 43.7628 40.0218C43.7154 40.0206 43.6691 40.0369 43.6328 40.0676C43.5966 40.0984 43.5728 40.1414 43.566 40.1886C43.556 40.2505 43.5511 40.3134 43.5491 40.3763C43.5272 41.0553 43.5749 41.7314 43.6982 42.4004C43.9428 43.7175 44.2759 45.0117 44.6707 46.2918C45.2805 48.2624 45.9917 50.1999 46.8015 52.0965C47.1336 52.8784 47.4727 53.6583 47.8108 54.4382C47.8913 54.6239 47.9758 54.8096 48.0593 54.9954L47.6626 55.4557C47.6516 55.4677 47.6387 55.4877 47.6288 55.4857C47.589 55.4827 47.5323 55.4837 47.5164 55.4597C47.4546 55.3688 47.3991 55.2737 47.3504 55.1751C46.9966 54.4897 46.679 53.7861 46.3988 53.0671C46.3541 52.9497 46.3064 52.8335 46.2556 52.7186C46.2457 52.6957 46.2069 52.6717 46.181 52.6717C46.1611 52.6717 46.1323 52.7037 46.1204 52.7276C46.0528 52.8704 45.9981 53.0192 45.9225 53.157C45.7634 53.4456 45.6093 53.7382 45.4264 54.0118C45.1609 54.4072 44.7751 54.6459 44.3177 54.7587C44.1043 54.8104 43.8877 54.8478 43.6694 54.8706C42.7785 54.9644 41.8836 54.9634 40.9897 54.9834C40.8206 54.9864 40.7282 54.9175 40.6616 54.7757C40.4607 54.3493 40.25 53.9269 40.0531 53.4975C39.0313 51.2626 38.2506 48.9243 37.7243 46.5225C37.4857 45.4301 37.27 44.3336 37.1507 43.2202C37.0631 42.4064 36.9647 41.5926 36.909 40.7757C36.8603 40.0708 36.8663 39.3608 36.8484 38.6518ZM62.6818 91.3363C61.1675 91.3243 59.8211 91.3054 58.4778 91.1316C57.4508 91.007 56.4399 90.7733 55.462 90.4346C55.3584 90.3984 55.2583 90.3529 55.1627 90.2988C55.0693 90.2449 55.0295 90.12 55.0564 90.0082C55.069 89.9543 55.0987 89.906 55.141 89.8705C55.1833 89.8351 55.2359 89.8143 55.291 89.8115C55.3685 89.8095 55.4471 89.8205 55.5227 89.8355C56.6612 90.0581 57.7987 90.2888 58.9561 90.3877C59.6123 90.4446 60.2676 90.5155 60.9258 90.5335C62.2423 90.5694 63.5598 90.5584 64.8773 90.4835C65.9418 90.4254 67.005 90.3441 68.066 90.2399C69.2194 90.125 70.3689 89.9593 71.5173 89.8025C73.147 89.5747 74.7684 89.2903 76.3785 88.9497C79.6163 88.2689 82.796 87.334 85.8882 86.1537C87.5766 85.5137 89.2291 84.7947 90.8081 83.9109C91.0269 83.7881 91.2456 83.6643 91.4624 83.5375C91.5824 83.461 91.722 83.4214 91.8641 83.4237C92.0918 83.4336 92.232 83.6184 92.1882 83.846C92.167 83.9559 92.1038 84.053 92.0122 84.1167C91.9089 84.1878 91.8027 84.2547 91.6941 84.3174C90.7466 84.8743 89.7683 85.3764 88.7638 85.8212C86.7433 86.7279 84.6662 87.4808 82.5572 88.1489C80.1516 88.9147 77.7004 89.528 75.2182 89.9853C74.2169 90.168 73.2136 90.3487 72.2084 90.5095C71.4497 90.6303 70.688 90.7262 69.9254 90.8191C69.2254 90.9039 68.5234 90.9768 67.8214 91.0407C66.854 91.1286 65.8855 91.2225 64.9161 91.2784C64.1176 91.3253 63.3162 91.3213 62.6818 91.3363ZM24.7117 89.8764C24.5973 89.8464 24.5068 89.8225 24.4154 89.8005C23.2443 89.5077 22.0919 89.1445 20.9641 88.7131C17.4214 87.376 14.0108 85.7513 10.6819 83.9489C9.53541 83.3278 8.40881 82.6737 7.33792 81.9268C7.1838 81.8199 7.03268 81.7061 6.88155 81.5933C6.83086 81.5564 6.78357 81.5149 6.74032 81.4695C6.61703 81.3336 6.59619 81.1279 6.68668 80.9891C6.77716 80.8513 6.97203 80.8084 7.14803 80.8993C7.24448 80.9492 7.33597 81.0121 7.42446 81.077C8.09662 81.5693 8.79957 82.0157 9.51846 82.4351C12.233 84.0188 15.0479 85.4028 17.9185 86.676C19.6247 87.4329 21.3747 88.083 23.1228 88.734C23.6368 88.9258 24.1529 89.1125 24.665 89.3102C24.7634 89.3482 24.8539 89.4151 24.9344 89.485C25.005 89.5459 25.003 89.6777 24.9314 89.7416C24.8648 89.8005 24.7783 89.8365 24.7117 89.8764ZM29.0479 58.8179C28.6641 58.8279 28.1312 58.8459 27.5982 58.8548C27.459 58.8578 27.3178 58.8449 27.1806 58.8239C27.097 58.8109 27.0652 58.6402 27.1338 58.5862C27.1809 58.546 27.2343 58.5139 27.2919 58.4914C27.5316 58.4095 27.7801 58.3875 28.0327 58.3815C29.3811 58.3518 30.7302 58.3918 32.0746 58.5014C32.4962 58.5373 32.9158 58.5912 33.3354 58.6461C33.7858 58.7061 34.2333 58.7959 34.6857 58.8319C35.0904 58.8618 35.505 58.8778 35.9057 58.8269C36.7008 58.728 37.4728 58.4919 38.1877 58.1289C38.5914 57.9222 38.9673 57.6596 39.355 57.4239C39.6504 57.2442 39.9437 57.0624 40.242 56.8907C40.3514 56.8278 40.4209 56.8677 40.4995 57.0105C40.582 57.1583 40.5731 57.2062 40.4508 57.2821C40.1187 57.4898 39.7766 57.6835 39.4544 57.9072C38.5882 58.5083 37.6135 58.9337 36.5849 59.1594C36.1702 59.2523 35.7546 59.3092 35.329 59.3152C34.8743 59.3138 34.4206 59.2703 33.9738 59.1854C32.9685 59.0116 31.9533 58.9417 30.9381 58.8708C30.3584 58.8299 29.7778 58.8359 29.0479 58.8179ZM62.4641 65.9547C61.772 65.9756 61.0093 65.8768 60.2537 65.735C59.7923 65.6481 59.3409 65.5123 58.8865 65.3915C58.7632 65.3585 58.7304 65.2976 58.7533 65.1848C58.7741 65.0769 58.8029 64.9701 58.8298 64.8632C58.8875 64.6356 58.9014 64.6246 59.1072 64.6845C60.0588 64.9611 61.0253 65.1398 62.0136 65.2297C63.1409 65.3297 64.2769 65.2293 65.3695 64.9331C66.1788 64.7184 66.9295 64.364 67.6405 63.9226C67.7598 63.8487 67.888 63.7898 68.0153 63.7299C68.0352 63.7199 68.0819 63.7359 68.0969 63.7548C68.1088 63.7708 68.1028 63.8207 68.0869 63.8357C67.725 64.1622 67.372 64.4988 66.9941 64.8063C66.6292 65.1039 66.2395 65.3705 65.8596 65.6491C65.7672 65.717 65.6757 65.7719 65.5922 65.6221C65.5713 65.5852 65.4838 65.5732 65.4261 65.5722C65.3655 65.5722 65.3038 65.5972 65.2432 65.6122C64.3582 65.8488 63.4594 65.9627 62.4641 65.9547ZM62.7862 69.8521C62.7424 69.8231 62.6649 69.7982 62.6599 69.7622C62.6529 69.7093 62.6917 69.6454 62.7216 69.5935C62.7345 69.5715 62.7743 69.5615 62.8031 69.5505C62.8618 69.5295 62.9214 69.5086 62.9821 69.4906C64.4577 69.0712 65.802 68.3682 67.0916 67.5504C68.425 66.7046 69.6042 65.6731 70.6761 64.5147C70.9844 64.1822 70.9247 64.1632 71.4418 64.349C71.4563 64.3543 71.4705 64.3603 71.4845 64.367C71.5412 64.3929 71.565 64.4728 71.5233 64.5237C71.4248 64.6465 71.3264 64.7694 71.22 64.8842C70.7301 65.4156 70.2102 65.9184 69.6629 66.3901C67.9358 67.8729 65.9968 68.9654 63.8064 69.5925C63.4753 69.6863 63.1392 69.7622 62.7862 69.8521ZM58.5176 85.5386L58.5156 85.5646C57.8275 85.5286 57.1384 85.4927 56.4504 85.4547C55.809 85.4198 55.1667 85.3888 54.5264 85.3409C54.3238 85.3216 54.1236 85.2821 53.9288 85.2231C53.7717 85.1801 53.6663 85.0343 53.6842 84.9145C53.6912 84.8511 53.7179 84.7914 53.7605 84.7441C53.8032 84.6968 53.8597 84.6642 53.9218 84.6509C54.074 84.6169 54.2301 84.583 54.3842 84.584C54.7909 84.585 55.1985 84.598 55.6062 84.6179C56.514 84.6629 57.4209 84.7258 58.3287 84.7617C58.9402 84.7857 59.5516 84.7737 60.1641 84.7797C60.2566 84.7807 60.3551 84.7797 60.4426 84.8057C60.5032 84.8232 60.558 84.8565 60.6016 84.9022C60.6453 84.9479 60.6762 85.0044 60.6911 85.0659C60.706 85.1274 60.7045 85.1918 60.6867 85.2525C60.6689 85.3133 60.6355 85.3682 60.5898 85.4118C60.523 85.4764 60.4385 85.5195 60.3471 85.5356C60.1304 85.5666 59.9106 85.5855 59.6919 85.5835C59.3001 85.5786 58.9094 85.5546 58.5176 85.5386ZM53.6534 57.0544C53.6981 57.0924 53.7677 57.1303 53.8074 57.1882C53.8301 57.2215 53.839 57.2624 53.8321 57.3021C53.8252 57.3418 53.8032 57.3773 53.7707 57.4009C53.6587 57.485 53.5368 57.5548 53.4078 57.6086C53.2039 57.6885 52.9912 57.7444 52.7824 57.8123C51.6979 58.1564 50.7452 58.8276 50.0539 59.7346C49.7666 60.1081 49.4971 60.4965 49.2426 60.8919C48.9115 61.4072 48.6082 61.9404 48.281 62.4597C47.7371 63.3214 47.0123 64.0154 46.2168 64.6376C46.1065 64.7244 45.9792 64.7893 45.8549 64.8552C45.8002 64.8854 45.7382 64.8996 45.6759 64.8962C45.6212 64.8902 45.5507 64.8562 45.5248 64.8123C45.5009 64.7694 45.5029 64.6775 45.5337 64.6426C45.6262 64.5387 45.7326 64.4438 45.844 64.36C46.8174 63.621 47.6417 62.7473 48.2452 61.6738C48.3447 61.4951 48.4491 61.3193 48.5595 61.1466C48.8458 60.6972 49.1232 60.2379 49.4305 59.8015C50.2408 58.6491 51.2978 57.8193 52.6451 57.383C52.9275 57.2911 53.2069 57.1882 53.4883 57.0914C53.532 57.0764 53.5788 57.0714 53.6534 57.0544ZM12.8853 61.1306H12.9827C13.0672 61.1406 13.1309 61.1805 13.1597 61.2624C13.1737 61.3072 13.1719 61.3554 13.1547 61.399C13.1375 61.4427 13.1059 61.479 13.0652 61.5021C13.0095 61.532 12.9528 61.562 12.8922 61.5759C11.9028 61.8226 10.9483 62.1781 10.0037 62.5535C7.80628 63.4263 5.83154 64.6406 4.25853 66.446C4.21908 66.4946 4.17511 66.5394 4.12726 66.5798C4.06263 66.6327 3.98412 66.6507 3.91054 66.6027C3.89342 66.5928 3.87851 66.5793 3.86679 66.5633C3.85506 66.5473 3.84671 66.529 3.84233 66.5096C3.83794 66.4902 3.83761 66.4701 3.8413 66.4506C3.84498 66.431 3.85266 66.4125 3.86381 66.396C4.00202 66.1694 4.13126 65.9317 4.30229 65.73C4.51507 65.4804 4.7507 65.2447 5.00227 65.034C6.40724 63.8617 7.92757 62.8721 9.64178 62.213C10.4313 61.9105 11.2317 61.6379 12.0282 61.3573C12.235 61.2854 12.4488 61.2344 12.6605 61.1775C12.75 61.1526 12.8425 61.1396 12.8853 61.1306ZM39.0329 67.9468C39.0498 67.9119 39.0647 67.822 39.1184 67.7811C39.2795 67.6592 39.4485 67.5474 39.6265 67.4495C40.5005 66.9662 41.4143 66.5508 42.2048 65.9247C42.2675 65.8794 42.3395 65.8487 42.4156 65.8348C42.4951 65.8179 42.5786 65.8508 42.6104 65.9287C42.6324 65.986 42.6321 66.0494 42.6095 66.1065C42.5745 66.1759 42.5238 66.2362 42.4613 66.2822C42.2227 66.46 41.992 66.6527 41.7354 66.7975C40.9867 67.2179 40.227 67.6193 39.4694 68.0257C39.3888 68.0686 39.2954 68.0906 39.2059 68.1156C39.1402 68.1336 39.0419 68.0557 39.0329 67.9468ZM43.9468 56.649C43.6495 56.677 43.2458 56.7099 42.8441 56.7539C42.5647 56.7848 42.2873 56.8288 42.0099 56.8667C41.8885 56.8837 41.7951 56.8467 41.7374 56.7339C41.7096 56.679 41.6768 56.624 41.6559 56.5661C41.649 56.5462 41.6678 56.5022 41.6857 56.4932C41.7404 56.4634 41.7995 56.4425 41.8607 56.4313C42.3549 56.3624 42.8481 56.2825 43.3443 56.2376C43.7023 56.2111 44.0614 56.2045 44.4201 56.2176C44.5732 56.2196 44.7264 56.2676 44.8775 56.3025C44.9203 56.3125 44.969 56.3394 44.9928 56.3744C45.0246 56.4233 45.0574 56.4902 45.0475 56.5422C45.0396 56.5711 45.0256 56.5979 45.0064 56.6209C44.9872 56.6438 44.9632 56.6623 44.9361 56.675C44.8623 56.6969 44.785 56.704 44.7085 56.6959C44.4907 56.686 44.2729 56.669 43.9468 56.649ZM63.868 50.6426C63.88 50.6166 63.8849 50.5787 63.9038 50.5697C63.9237 50.5607 63.9555 50.5817 63.9824 50.5897L63.9366 50.6875L63.868 50.6426Z" fill="black"/>
<path d="M82.8039 38.4272C82.4559 38.3992 82.1745 38.3723 81.8931 38.3543C81.7499 38.3453 81.6923 38.4062 81.7062 38.555C81.7479 39.0104 81.7976 39.4637 81.8444 39.9181C81.8911 40.3574 81.9488 40.7948 81.9846 41.2342C82.0989 42.6172 82.1268 44.0032 82.1128 45.3912C82.1024 46.258 82.0586 47.1241 81.9816 47.9875C81.863 49.3374 81.6715 50.6798 81.4079 52.0087C80.9107 54.5331 80.1849 56.9916 79.3218 59.4121C78.7849 60.915 78.1087 62.3519 77.2288 63.686C77.1124 63.8618 77.1094 63.9966 77.2268 64.1533C77.2367 64.1663 77.2436 64.1803 77.2516 64.1933C77.3321 64.3211 77.3779 64.3401 77.5241 64.3121C77.878 64.2442 78.231 64.1723 78.586 64.1104C78.9867 64.0405 79.3695 64.1184 79.7305 64.2901C79.9721 64.404 80.2067 64.5328 80.4334 64.6726C80.9057 64.9642 81.4029 65.0021 81.9289 64.8663C82.6896 64.6686 83.4194 64.379 84.1502 64.0964C85.7014 63.4943 87.2455 62.8782 88.7927 62.266C90.2375 61.6939 91.717 61.2215 93.1846 60.7123C94.7855 60.1571 96.3853 59.6029 98.005 59.1046C98.9944 58.8 99.9838 58.4945 100.966 58.1669C101.531 57.9792 102.083 57.7505 102.638 57.5328C102.9 57.429 103.15 57.2892 103.416 57.1993C104.099 56.9696 104.672 56.5602 105.226 56.1169C105.991 55.5047 106.65 54.7888 107.268 54.0298C107.566 53.6644 107.878 53.3089 108.193 52.9584C108.395 52.7347 108.571 52.497 108.706 52.2274C109.679 50.2822 110.566 48.3001 111.254 46.234C111.743 44.7691 112.091 43.2663 112.351 41.7434C112.679 39.8242 112.764 37.893 112.731 35.9507C112.709 34.8477 112.631 33.7466 112.498 32.6515C112.258 30.6493 111.857 28.6699 111.298 26.733C110.081 22.505 108.247 18.5706 105.735 14.9598C104.274 12.8469 102.574 10.9104 100.671 9.18909C99.0245 7.70073 97.1997 6.42437 95.2389 5.38954C94.516 5.00808 93.8001 4.62064 93.0345 4.33205C92.4319 4.10637 91.8264 3.88869 91.194 3.76287C91.009 3.72692 90.8161 3.72292 90.6392 3.666C90.1688 3.51622 89.7085 3.56615 89.257 3.72092C89.0273 3.80081 88.8006 3.82278 88.564 3.79782C88.4705 3.78783 88.376 3.78783 88.2816 3.77984C85.8385 3.5981 83.7038 4.33804 81.8672 5.95672C80.7307 6.95829 79.8687 8.17055 79.1707 9.50863C78.4468 10.8986 77.9347 12.3685 77.5788 13.8924C77.4077 14.6273 77.2815 15.3742 77.1333 16.1152C77.0871 16.3167 77.1106 16.528 77.1999 16.7143C77.2904 16.896 77.3818 17.0778 77.4763 17.2585C77.4823 17.2685 77.5429 17.2675 77.5469 17.2585C77.5637 17.2148 77.5751 17.1692 77.5808 17.1227C77.721 16.1082 77.8909 15.0996 78.1395 14.105C78.5273 12.5553 79.0603 11.0624 79.8339 9.66141C80.3937 8.64886 81.0619 7.7182 81.8951 6.91435C82.9332 5.91378 84.1323 5.19082 85.5323 4.82534C86.1685 4.65032 86.8255 4.56264 87.4852 4.56472C87.515 4.56472 87.5448 4.5787 87.5757 4.58569C87.5598 4.62363 87.5538 4.67057 87.5269 4.69653C87.4603 4.76343 87.3807 4.81636 87.3131 4.88226C87.1431 5.04503 86.9721 5.2078 86.81 5.37855C86.5704 5.63019 86.4004 5.92577 86.2293 6.22933C85.595 7.35572 85.3155 8.56598 85.2966 9.84914C85.2807 10.9136 85.4567 11.9511 85.7332 12.9747C86.0672 14.2089 86.5346 15.3942 87.0407 16.5655C87.8897 18.5142 88.8185 20.4267 89.8248 22.2983C91.2467 24.9645 92.6904 27.6207 94.1232 30.2809C94.3768 30.7532 94.6045 31.2385 94.7397 31.7598C94.7834 31.9255 94.8034 32.0993 94.8183 32.271C94.83 32.3973 94.8119 32.5245 94.7656 32.6424C94.7193 32.7604 94.6461 32.8658 94.5518 32.9501C94.4384 33.0589 94.3171 33.1597 94.1899 33.2516C93.9472 33.4254 93.6987 33.5901 93.4521 33.7579C91.7548 34.9162 90.4283 36.3991 89.5265 38.2574C89.4718 38.3713 89.4151 38.4831 89.3594 38.597C89.1427 39.0423 89.2411 39.0333 88.6475 38.9564C87.9316 38.8656 87.2167 38.7727 86.4988 38.7008C85.7342 38.6239 84.9676 38.571 84.2019 38.5071C84.0031 38.4911 83.9732 38.4681 83.9364 38.2515C83.89 37.972 83.8486 37.6916 83.8121 37.4107C83.6021 35.8973 83.3026 34.3978 82.9153 32.9201C82.1129 29.8125 80.9843 26.8288 79.4739 23.9969C77.6593 20.5918 75.3892 17.5341 72.5594 14.9099C69.8548 12.4035 66.8053 10.4463 63.3421 9.16413C62.7694 8.95243 62.1827 8.77668 61.601 8.58995C61.5118 8.56259 61.4189 8.54912 61.3256 8.55001C61.2182 8.55001 61.1178 8.64587 61.0909 8.74972C61.0601 8.86655 61.077 8.98339 61.1734 9.04929C61.2749 9.11919 61.3952 9.16213 61.5125 9.20207C62.0325 9.37882 62.5585 9.53659 63.0736 9.72532C65.5982 10.652 67.913 11.9621 70.0468 13.5998C72.8816 15.7767 75.2371 18.3969 77.1999 21.3806C79.3446 24.64 80.9167 28.1639 81.9995 31.9115C82.4959 33.6199 82.8783 35.3596 83.1439 37.1191C83.1976 37.4776 83.2573 37.8351 83.308 38.1935C83.3338 38.3783 83.2881 38.4262 83.1151 38.4272H82.8039ZM112.112 35.4145H112.134C112.134 35.8239 112.135 36.2333 112.133 36.6438C112.132 36.6897 112.112 36.7346 112.102 36.7796C112.045 36.7596 111.978 36.7536 111.932 36.7196C111.757 36.5848 111.594 36.4371 111.418 36.3052C111.337 36.2433 111.246 36.1215 111.14 36.1954C111.088 36.2323 111.092 36.3701 111.094 36.461C111.12 37.8211 110.96 39.1651 110.749 40.5052C110.634 41.2362 110.52 41.9661 110.52 42.7121C110.52 43.1824 110.476 43.6567 110.428 44.126C110.303 45.3493 110.081 46.5566 109.828 47.7598C109.712 48.307 109.429 48.7404 109.107 49.1678C109.082 49.2008 109.015 49.1788 108.997 49.1319C108.98 49.0889 108.962 49.045 108.951 49.0001C108.818 48.5158 108.687 48.0294 108.554 47.5451C108.536 47.4856 108.512 47.4278 108.484 47.3724C108.408 47.2186 108.324 47.0678 108.251 46.912C107.851 46.0633 107.348 45.2884 106.644 44.6603C105.522 43.6607 104.218 43.3222 102.753 43.5978C102.416 43.6617 102.095 43.8145 101.758 43.8684C101.494 43.9104 101.286 44.0242 101.081 44.172C100.903 44.3008 100.722 44.4246 100.542 44.5514C99.5788 45.2367 98.7503 46.0945 98.0975 47.0818C97.4164 48.0953 96.9183 49.1968 96.5196 50.3471C96.1467 51.4176 95.8504 52.511 95.564 53.6085C95.3224 54.5371 95.0748 55.4658 94.8202 56.3905C94.6991 56.8315 94.5352 57.2596 94.331 57.6686C94.0427 58.2468 93.5962 58.6432 92.9897 58.8529C92.6785 58.9598 92.3633 59.0566 92.0461 59.1455C90.142 59.6748 88.213 60.1012 86.2909 60.5575C86.0016 60.6264 85.7093 60.6833 85.4179 60.7422C85.3454 60.7572 85.2917 60.6953 85.3185 60.6344C85.3315 60.6064 85.3444 60.5775 85.3593 60.5505C85.771 59.8215 86.0712 59.0427 86.3576 58.2578C86.989 56.5253 87.4852 54.7528 87.9386 52.9664C88.2687 51.6682 88.5133 50.3541 88.6485 49.02C88.6903 48.6136 88.6594 48.2002 88.7708 47.7998C88.7888 47.7063 88.7877 47.6102 88.7678 47.5172C88.7032 47.0668 88.6654 46.6085 88.5571 46.1691C88.385 45.4681 88.3363 44.7731 88.4814 44.0651C88.5013 43.9733 88.5013 43.8774 88.5103 43.7835C88.5421 43.454 88.5679 43.1245 88.6087 42.7949C88.6256 42.6571 88.6415 42.4994 88.7161 42.3885C88.8812 42.1429 88.9259 41.8683 88.9726 41.5897C89.0574 41.0445 89.2097 40.5121 89.4261 40.0049C89.6349 39.5286 89.8397 39.0513 90.0615 38.582C90.7963 37.0292 91.8631 35.745 93.2144 34.6975C93.5495 34.4379 93.9114 34.2132 94.2545 33.9636C94.4961 33.7888 94.7417 33.6161 94.9585 33.4124C95.3661 33.0299 95.5143 32.5506 95.4248 31.9944C95.373 31.6836 95.289 31.379 95.1742 31.0857C94.9237 30.4367 94.5905 29.8305 94.2604 29.2214C93.2015 27.2712 92.1316 25.327 91.0856 23.3688C89.9292 21.2019 88.8106 19.016 87.8103 16.7712C87.3094 15.6677 86.8712 14.5365 86.4978 13.3831C86.0851 12.0799 85.8575 10.7538 85.942 9.38181C85.9792 8.72016 86.1149 8.06784 86.3447 7.44659C86.804 6.21435 87.5905 5.26771 88.7867 4.69653C89.5116 4.35002 90.2643 4.18426 91.0697 4.365C91.5768 4.47884 92.068 4.63462 92.5552 4.81136C93.2801 5.07399 93.9651 5.42049 94.6572 5.75901C95.9876 6.41007 97.2543 7.161 98.4137 8.08567C98.7826 8.38025 99.1435 8.68481 99.5045 8.98938C101.368 10.5638 103.046 12.3479 104.505 14.3068C106.924 17.5461 108.77 21.095 110.084 24.9226C110.722 26.7683 111.214 28.6614 111.557 30.5844C111.716 31.4832 111.839 32.3889 111.945 33.2956C112.027 33.9985 112.059 34.7075 112.112 35.4145Z" fill="black"/>
<path d="M80.8948 41.5367C80.9654 42.5423 81.0081 43.5498 81.0529 44.3886C81.024 45.0946 80.9912 45.6289 80.9813 46.1631C80.9654 47.1577 80.8699 48.1463 80.7496 49.1308C80.5557 50.7266 80.2485 52.3023 79.8697 53.8641C79.466 55.5347 78.9399 57.1663 78.3722 58.786C77.9789 59.9168 77.4937 61.0133 76.9214 62.0643C76.4188 62.9932 75.7985 63.8528 75.076 64.6216C74.892 64.8154 74.7012 64.9452 74.4218 64.9152C74.2825 64.9002 74.1393 64.9292 73.9991 64.9192C73.8222 64.9052 73.6292 64.9682 73.4711 64.8343C73.5569 64.687 73.6431 64.5398 73.7297 64.393C73.7615 64.3401 73.7983 64.2881 73.8292 64.2332C74.3959 63.2167 74.9805 62.2081 75.5264 61.1796C77.3601 57.7405 78.5428 53.9897 79.0145 50.1174C79.1547 48.9741 79.2243 47.8257 79.2571 46.6774C79.2959 45.3383 79.3188 43.9972 79.1855 42.6611C79.109 41.8932 79.0255 41.1263 78.928 40.3614C78.8535 39.7673 78.7511 39.1781 78.6606 38.5859C78.6337 38.4132 78.6744 38.3593 78.8554 38.3493C79.0901 38.3373 79.3257 38.3373 79.5604 38.3273C79.8606 38.3163 79.8706 38.3024 79.8378 37.9898C79.8308 37.9269 79.8259 37.864 79.814 37.8021C79.6569 36.9982 79.5206 36.1904 79.3376 35.3935C78.4845 31.6699 77.1522 28.1299 75.2719 24.8047C73.4762 21.6272 71.2609 18.7843 68.5444 16.3448C67.3179 15.2381 65.9981 14.2405 64.5999 13.3631C63.3589 12.5892 62.0703 11.9062 60.7091 11.3659C60.5938 11.32 60.4804 11.2601 60.381 11.1862C60.3346 11.1554 60.2994 11.1104 60.2804 11.0579C60.2614 11.0054 60.2597 10.9481 60.2755 10.8946C60.3094 10.7728 60.4247 10.6769 60.559 10.6929C60.6981 10.7092 60.8345 10.7438 60.9647 10.7958C62.7507 11.5332 64.4525 12.4616 66.0406 13.5648C68.9749 15.6019 71.4527 18.1063 73.5607 20.9882C75.2016 23.2421 76.5823 25.6759 77.6761 28.2428C78.7119 30.6438 79.5041 33.1435 80.0406 35.7041C80.2037 36.4899 80.343 37.2808 80.4891 38.0697C80.5548 38.4252 80.6303 38.7797 80.6691 39.1382C80.7597 39.9361 80.835 40.7358 80.8948 41.5367Z" fill="black"/>
<path d="M76.8936 19.3056C76.8548 19.1228 76.833 18.9361 76.8041 18.7504L76.816 18.7484C76.8101 18.6385 76.7942 18.5287 76.8002 18.4208C76.8081 18.2291 76.9761 18.1203 77.1671 18.1712C77.2844 18.2022 77.3649 18.28 77.3828 18.3949C77.4216 18.6415 77.4594 18.8912 77.4654 19.1408C77.4674 19.2576 77.4107 19.3835 77.356 19.4923C77.2894 19.6231 77.0835 19.6311 76.996 19.5123C76.9476 19.4515 76.9127 19.381 76.8936 19.3056Z" fill="black"/>
<path d="M43.218 38.7577C43.1802 38.4641 43.1524 38.1695 43.1216 37.87C43.1275 37.8121 43.1315 37.7491 43.1405 37.6882C43.1484 37.6413 43.1603 37.5964 43.1723 37.5514C43.2071 37.4246 43.2866 37.3457 43.39 37.3417C43.5153 37.3367 43.5968 37.4116 43.6406 37.5165C43.6896 37.631 43.7246 37.751 43.745 37.874C43.7828 38.1346 43.8117 38.3982 43.8315 38.6628C43.8356 38.7551 43.8221 38.8473 43.7917 38.9344C43.7619 39.0273 43.6844 39.0852 43.5829 39.0972C43.4656 39.1112 43.3642 39.0762 43.3026 38.9724C43.2638 38.9065 43.228 38.8316 43.218 38.7577Z" fill="black"/>
</svg>
