<svg width="38" height="36" viewBox="0 0 38 36" fill="none" xmlns="http://www.w3.org/2000/svg">
<path d="M17.9165 35.2877C21.8232 35.6362 25.4382 35.1164 28.8491 33.3997C36.2583 29.6694 39.9539 21.1384 36.4186 12.6304C35.5972 10.6547 34.4244 8.89516 32.9678 7.33276C32.5646 6.90158 32.0798 6.54612 31.6268 6.16174C31.1764 5.77776 30.7193 5.40163 30.2559 5.03351C29.688 4.58417 29.1125 4.14459 28.5295 3.71504C27.8366 3.20818 27.1695 2.95924 26.4219 3.70708C26.1282 4.00184 25.6214 3.6762 25.6752 3.19423C25.7458 2.55892 25.5856 2.24228 24.9534 2.02121C18.8295 -0.129706 12.9466 0.289532 7.47083 3.85945C3.48947 6.45549 1.20858 10.2574 0.534571 14.9586C0.291647 16.6554 0.313548 18.3931 0.759572 20.0819C0.789439 20.1935 0.908907 20.3179 1.01344 20.3598C1.08712 20.3866 1.2514 20.306 1.30516 20.2263C1.68149 19.6836 2.02198 19.115 2.41723 18.5883C2.50285 18.4737 2.84831 18.401 2.93393 18.4747C3.11214 18.6251 3.34611 18.9328 3.29434 19.0951C2.97575 20.1128 2.50484 21.0737 1.64166 21.7369C1.28325 22.0118 1.3161 22.2448 1.42562 22.5654C2.23503 24.9175 3.52332 26.9908 5.21284 28.7981C8.6974 32.5254 13.0202 34.6165 17.9165 35.2877ZM36.1428 20.3299C35.6788 24.5431 32.9848 27.7555 29.4425 28.7951C27.4015 29.3936 25.475 29.1456 23.8353 27.7535C21.5325 25.7988 20.3577 23.3143 20.6106 20.2283C20.7928 18.0047 21.8362 16.2222 23.3096 14.621C25.1435 12.6304 27.4772 11.9144 30.0926 11.8955C30.3524 11.8945 30.6392 11.9194 30.8692 12.025C32.6403 12.8395 34.2352 13.8612 35.1462 15.6915C35.9656 17.3375 36.2593 19.0702 36.1428 20.3299ZM7.8631 11.6734C7.93677 10.9355 8.27029 10.4078 8.86964 10.1379C8.96521 10.0941 9.15238 10.122 9.22605 10.1927C9.35448 10.3172 9.5327 10.5213 9.50681 10.6547C9.39132 11.2452 9.10459 11.7591 8.54806 12.0469C8.40867 12.1176 8.17671 12.0708 8.01244 12.009C7.93279 11.9792 7.91288 11.7909 7.8631 11.6734ZM13.9621 17.6233C13.8516 17.5626 13.6813 17.5267 13.6415 17.4361C13.5708 17.2718 13.4872 16.989 13.5668 16.9063C13.9212 16.5349 14.3235 16.2063 14.7287 15.8887C14.7974 15.8349 15.0174 15.8707 15.0851 15.9424C15.2115 16.0758 15.3708 16.279 15.3489 16.4304C15.2663 17.0348 14.5982 17.5775 13.9621 17.6233ZM15.5261 31.2179C15.5779 30.6045 16.0916 29.9971 16.7408 29.773C16.8373 29.7381 17.0245 29.786 17.0852 29.8636C17.1987 30.004 17.3411 30.2141 17.3082 30.3615C17.1699 31.0138 16.5476 31.5365 15.9383 31.5176C15.791 31.5116 15.6496 31.3105 15.5261 31.2179ZM16.8314 9.20388C16.8911 9.23176 16.9528 9.25464 17.0076 9.29049C17.2595 9.45778 17.2963 9.88102 17.0872 10.1608C16.7029 10.6727 16.2559 10.8151 15.9393 10.5233C15.8873 10.4826 15.8462 10.4295 15.8198 10.3689C15.6645 9.84217 16.2659 9.1531 16.8314 9.20388ZM12.6778 4.91998C12.5742 4.85824 12.4209 4.8224 12.3771 4.73278C12.1581 4.28865 12.3313 3.81265 12.7723 3.58461C13.0561 3.43823 13.4712 3.68421 13.4941 4.01182C13.526 4.48184 13.1875 4.85824 12.6778 4.91998ZM17.1579 26.8533C17.5661 26.8125 17.7861 27.0326 17.7652 27.3054C17.7453 27.5842 17.6059 27.7734 17.3202 27.8312C17.0982 27.875 16.8154 27.6111 16.8762 27.3552C16.9229 27.1481 17.0882 26.9698 17.1569 26.8533H17.1579ZM28.5843 9.36616C28.5355 9.06842 28.7187 8.89619 28.9785 8.80955C29.2852 8.70798 29.4853 8.88421 29.555 9.15806C29.6336 9.4558 29.4524 9.65 29.1737 9.71472C28.8939 9.77846 28.6729 9.68382 28.5843 9.36616Z" fill="black"/>
</svg>
