<svg width="36" height="39" viewBox="0 0 36 39" fill="none" xmlns="http://www.w3.org/2000/svg">
<path d="M8.7829 38.9849C9.17118 38.9978 9.50974 38.951 9.83828 38.8773C10.2166 38.7936 10.595 38.7011 10.9832 38.6533C11.4213 38.5995 11.8593 38.5487 12.2974 38.5527C12.7155 38.5567 13.1436 38.5716 13.5618 38.5885C14.2089 38.6154 14.846 38.6403 15.4932 38.6801C16.3593 38.7329 17.2354 38.7319 18.1016 38.7428C18.4799 38.7478 18.8484 38.7349 19.2168 38.7269C19.5055 38.7209 19.7842 38.6652 20.053 38.5736C21.3174 38.1494 22.5121 37.6077 23.6471 36.9206C23.9159 36.7613 24.1648 36.586 24.4137 36.3998C24.6825 36.1907 24.9812 36.0383 25.3098 35.9546C25.5885 35.8849 25.8672 35.7993 26.1361 35.7276C27.0122 35.4986 27.7987 35.0813 28.5355 34.5734C29.2622 34.0765 29.8795 33.4602 30.4868 32.8388C31.0144 32.3021 31.4326 31.6797 31.8408 31.0524C32.1295 30.6042 32.3784 30.1332 32.6074 29.6543C32.6457 29.5934 32.6758 29.5278 32.697 29.459C32.8164 29.1324 32.926 28.8008 33.0852 28.4911C33.1426 28.3921 33.1671 28.2774 33.155 28.1635C33.1451 28.0301 33.0653 27.9285 32.9359 27.9006C32.8065 27.8727 32.677 27.8648 32.5576 27.9504C32.1195 28.2452 31.6815 28.522 31.2534 28.8207C30.9049 29.0617 30.6261 29.3804 30.3474 29.698C30.1582 29.9151 29.9791 30.1332 29.7799 30.3443C29.541 30.6092 29.2721 30.8472 28.9834 31.0613C28.2168 31.6209 27.3805 32.0093 26.4845 32.2901C26.3849 32.322 26.2854 32.3469 26.1859 32.322C26.1498 32.3151 26.1172 32.296 26.0936 32.2679C26.0701 32.2397 26.057 32.2043 26.0565 32.1676C26.0764 31.9874 26.1261 31.8221 26.2854 31.7195C26.385 31.6538 26.4944 31.591 26.604 31.5413C26.9325 31.3959 27.271 31.2654 27.5896 31.114C28.0376 30.9039 28.4359 30.6222 28.7943 30.2776C29.2025 29.8952 29.5808 29.4949 29.9591 29.0896C30.3175 28.7062 30.7058 28.3577 31.1439 28.065C31.6716 27.7125 32.1992 27.3609 32.7567 27.0572C32.8663 26.9984 32.9658 26.9257 33.0653 26.856C33.2246 26.7455 33.3839 26.635 33.583 26.6051C33.6328 26.5982 33.6826 26.5702 33.7224 26.5394C34.1605 26.1819 34.5687 25.7985 34.8973 25.3335C35.2159 24.8863 35.4548 24.4054 35.6041 23.8776C35.6738 23.6506 35.7434 23.4245 35.7932 23.1945C35.8928 22.6966 35.8729 22.1937 35.8131 21.6939C35.7175 20.8346 35.4392 20.0058 34.9968 19.2631C34.947 19.1655 34.8873 19.0659 34.8375 18.9693C34.6583 18.6776 34.4591 18.4057 34.1903 18.1906C34.1326 18.1491 34.0822 18.0983 34.041 18.0403C33.9115 17.8481 33.7224 17.7196 33.5332 17.5962C33.3341 17.4667 33.145 17.3362 32.9459 17.2058C32.916 17.1889 32.8862 17.1769 32.8662 17.156C32.6074 16.9061 32.2689 16.8025 31.9702 16.6362C31.333 16.2866 30.7655 15.8604 30.3075 15.2928C30.0088 14.9244 29.77 14.5171 29.5211 14.1218C29.1627 13.5801 28.8042 13.0453 28.3761 12.5594C28.2517 12.4097 28.1037 12.2812 27.938 12.179C27.49 11.9181 27.0421 11.6712 26.5542 11.5049C26.2655 11.4043 25.9668 11.3455 25.6582 11.3077C25.4292 11.2788 25.2101 11.3117 25.0011 11.4023C24.8418 11.471 24.6725 11.5248 24.4933 11.5387C24.334 11.5507 24.1946 11.5118 24.0851 11.3764C23.9756 11.227 23.8064 11.1384 23.6471 11.0518C23.2744 10.8581 22.8696 10.734 22.4524 10.6853C21.5525 10.5628 20.6362 10.6633 19.7842 10.9781C19.2366 11.1842 18.7388 11.4799 18.3008 11.8852C17.8428 12.3144 17.4247 12.7794 17.0762 13.3012C16.9568 13.4805 16.8572 13.6677 16.7875 13.8738C16.7178 14.0571 16.6382 14.2343 16.5685 14.4146C16.5441 14.4774 16.5053 14.5336 16.4551 14.5786C16.4049 14.6236 16.3448 14.6561 16.2797 14.6735C16.1503 14.7084 16.0508 14.794 15.9412 14.8776C15.6724 15.0897 15.4434 15.3297 15.2443 15.6055C14.9655 15.9879 14.7166 16.3892 14.5075 16.8114C14.3482 17.1251 14.2288 17.4537 14.1591 17.7953C14.0894 18.1199 14.0994 18.4476 14.199 18.7682C14.2189 18.8309 14.2487 18.8479 14.3085 18.823C14.5872 18.7184 14.866 18.6686 15.1547 18.6597C15.4534 18.6497 15.7421 18.572 15.991 18.3958C16.1403 18.2902 16.2997 18.1976 16.459 18.093C16.907 17.7813 17.4048 17.626 17.9424 17.5633C18.3406 17.5165 18.7388 17.4975 19.137 17.5095C19.4258 17.5175 19.7145 17.5643 19.9932 17.6389C20.1724 17.6867 20.3417 17.7564 20.4711 17.8939C20.5209 17.9446 20.5707 18.0024 20.6005 18.0642C20.6702 18.2026 20.6006 18.3639 20.4513 18.4017C20.3793 18.4175 20.305 18.4198 20.2322 18.4087C20.1507 18.3965 20.0707 18.3761 19.9932 18.348C19.4556 18.1528 18.8882 18.1647 18.3307 18.2046C18.1117 18.2195 17.9026 18.2613 17.6835 18.2952C17.3848 18.343 17.116 18.4645 16.8671 18.6308C16.6779 18.7543 16.4888 18.8738 16.2996 18.9992C15.9611 19.2283 15.5728 19.3248 15.1647 19.3348C14.8262 19.3438 14.5275 19.4483 14.2388 19.6176C14.0795 19.7122 13.9301 19.8138 13.7708 19.9153C13.6513 19.996 13.5319 20.0737 13.3825 20.0627C13.3327 20.0597 13.2831 20.0886 13.2432 20.1205C12.6061 20.6781 11.9091 21.1761 11.3117 21.7865C10.2593 22.8414 9.39112 24.0652 8.74316 25.4072C8.62369 25.6492 8.55399 25.9051 8.4843 26.162L7.85707 28.5379C7.81725 28.6863 7.78735 28.8387 7.69775 28.9701C7.68779 28.9871 7.68777 29.006 7.67781 29.0259C7.64795 29.1225 7.66791 29.227 7.72764 29.2798C7.81725 29.3455 7.91681 29.3535 7.98651 29.2997C8.35487 29.0548 8.77294 28.9393 9.15127 28.7471C9.37029 28.6365 9.58935 28.516 9.79842 28.3826C10.2753 28.0773 10.666 27.6549 10.9334 27.1558C11.0429 26.9576 11.1425 26.7565 11.2521 26.5583C11.4412 26.2048 11.6801 25.8822 11.9689 25.6073C12.1282 25.4609 12.3073 25.3315 12.5064 25.2428C12.5823 25.2134 12.6651 25.2068 12.7447 25.2238C12.8243 25.2408 12.8972 25.2806 12.9545 25.3384C13.0441 25.439 13.064 25.5655 12.9943 25.677C12.9247 25.7696 12.8549 25.8543 12.7752 25.936C12.7155 26.0017 12.6359 26.0594 12.5662 26.1172C12.3808 26.2642 12.2254 26.4453 12.1083 26.6509C11.8594 27.0771 11.6005 27.4954 11.3616 27.9255C11.0728 28.4623 10.6348 28.8596 10.1171 29.1723C9.83831 29.3426 9.54959 29.4849 9.24096 29.6064C8.90246 29.7389 8.5739 29.8723 8.2354 29.9948C7.82721 30.1432 7.45884 30.3593 7.11038 30.6072C6.95109 30.7128 6.80178 30.8093 6.64249 30.9119C6.60132 30.938 6.56428 30.9702 6.53286 31.0075C6.39348 31.1877 6.25412 31.367 6.18443 31.5831C6.09483 31.825 6.01518 32.067 5.93554 32.311C5.85589 32.5868 5.80612 32.8697 5.82604 33.1605C5.83599 33.2312 5.83598 33.3068 5.81607 33.3745C5.80068 33.4429 5.77009 33.5069 5.7265 33.5617C5.68668 33.6205 5.60701 33.6085 5.57714 33.5478C5.57714 33.5378 5.56717 33.5289 5.56717 33.5189C5.49748 33.2819 5.32829 33.1236 5.12917 32.9812C4.52825 32.5368 3.85913 32.1931 3.14796 31.9635C2.74973 31.837 2.43106 31.6209 2.19211 31.2714C2.03329 31.032 1.83063 30.8249 1.59479 30.661C1.49523 30.5913 1.38577 30.5255 1.27625 30.4887C1.05722 30.422 0.907829 30.5156 0.848094 30.7277C0.828182 30.8253 0.808241 30.9319 0.818197 31.0314C0.848065 31.3372 0.907873 31.6378 1.01739 31.9276C1.15677 32.2722 1.2762 32.6197 1.47532 32.9354C1.51514 33.0041 1.54498 33.0847 1.56489 33.1644C1.63458 33.6045 1.82382 34.0038 2.02294 34.3972C2.55928 35.4783 3.36933 36.4002 4.37252 37.0709C5.41788 37.781 6.54289 38.3465 7.72764 38.7937C8.08605 38.9311 8.4444 39.0137 8.7829 38.9849ZM27.5696 22.4278C27.4004 22.4307 27.3109 22.4108 27.2611 22.3212C27.1914 22.2127 27.2113 22.1031 27.281 22.0035C27.3109 21.9537 27.3507 21.9069 27.4005 21.8691C27.4801 21.8063 27.5697 21.7446 27.6593 21.6968C27.7888 21.6241 27.9281 21.5584 28.0674 21.5006C29.0332 21.1103 30.0287 21.0018 31.0542 21.1033C31.4027 21.1382 31.7412 21.1392 32.0697 20.9789C32.2191 20.9062 32.3684 20.948 32.458 21.0625C32.5476 21.173 32.5576 21.3383 32.4779 21.4668C32.4481 21.521 32.4067 21.5682 32.3569 21.605C32.3071 21.6418 32.2498 21.6673 32.1892 21.6799C31.8407 21.7775 31.4923 21.8342 31.1339 21.7884C30.7772 21.7462 30.4174 21.7342 30.0586 21.7526C29.4414 21.7794 28.8441 21.906 28.2666 22.147C28.1272 22.2067 27.9978 22.2833 27.8484 22.3401C27.7389 22.3849 27.6194 22.4128 27.5696 22.4278ZM16.3892 35.4597C15.7839 35.4824 15.1789 35.4077 14.5972 35.2387C14.5574 35.2267 14.5176 35.2247 14.4778 35.2137C14.2992 35.1651 14.112 35.1576 13.9301 35.1919C13.7808 35.2158 13.6315 35.2227 13.4722 35.2257C13.3328 35.2277 13.2432 35.146 13.1934 35.0245C13.1436 34.909 13.1735 34.8035 13.2432 34.7099C13.2813 34.6612 13.3294 34.6213 13.3845 34.5931C13.4395 34.5649 13.5 34.549 13.5618 34.5466C13.6713 34.5376 13.7708 34.5366 13.8703 34.5187C14.1093 34.4778 14.3383 34.4829 14.5673 34.5406C14.7067 34.5755 14.8461 34.6113 14.9855 34.6412C15.1548 34.6771 15.3239 34.7188 15.5031 34.7388C16.0806 34.8055 16.658 34.8174 17.2454 34.7457C17.345 34.7338 17.4446 34.7388 17.5441 34.7816C17.7034 34.8503 17.7632 35.0176 17.6835 35.164C17.6521 35.2185 17.6077 35.2644 17.5541 35.2974C17.4645 35.3462 17.3749 35.386 17.2753 35.4109C16.9866 35.4826 16.6879 35.4547 16.3892 35.4597ZM32.5875 8.05843C32.5756 8.92766 32.4244 9.78934 32.1395 10.6106C31.9105 11.238 31.6715 11.8593 31.3529 12.4449C31.2135 12.6958 31.0941 12.9567 30.9646 13.2126C30.9248 13.2853 30.8751 13.3162 30.7855 13.2913C30.6379 13.2468 30.4792 13.2556 30.3374 13.3162C30.1881 13.3769 30.1085 13.4905 30.1184 13.6498C30.1184 13.7295 30.1384 13.8111 30.1583 13.8878C30.218 14.0561 30.3175 14.2005 30.427 14.3339C30.5365 14.4594 30.6361 14.5839 30.7357 14.7153C30.9746 15.031 31.2533 15.3008 31.5719 15.5229C31.8607 15.7201 32.1593 15.8993 32.4481 16.0885C32.5277 16.1383 32.6173 16.1841 32.677 16.2479C32.7567 16.3295 32.8363 16.3295 32.9259 16.2877C33.1449 16.1901 33.2147 16.0696 33.2147 15.8326C33.2176 15.676 33.1646 15.5235 33.0653 15.4024C32.9359 15.2321 32.936 15.0668 33.0156 14.8866C33.1351 14.6347 33.2247 14.3717 33.364 14.1357C33.8618 13.3102 34.2003 12.425 34.4791 11.5099C34.6882 10.8028 34.8374 10.0809 34.9171 9.34499C34.9868 8.66187 35.0067 7.97776 34.947 7.28867C34.8736 6.42046 34.6827 5.56624 34.3796 4.7494C34.0303 3.82429 33.4948 2.98069 32.8065 2.27085C31.8771 1.3067 30.6751 0.649958 29.3618 0.388781C28.8189 0.271734 28.2642 0.218292 27.709 0.229481C26.8429 0.254376 25.9967 0.39875 25.1704 0.660644C25.1305 0.672593 25.1007 0.687499 25.0609 0.703432C24.8916 0.773138 24.8617 0.837923 24.8816 1.01219C24.8916 1.17948 24.9513 1.33279 25.0409 1.47319C25.1903 1.72812 25.3495 1.97706 25.5088 2.228C25.5984 2.3714 25.7378 2.46702 25.8872 2.54071C26.0365 2.61639 26.1858 2.63334 26.3551 2.58653C26.8031 2.46405 27.261 2.41325 27.729 2.42122C28.8241 2.44113 29.7899 2.80557 30.6262 3.50861C31.4326 4.17878 31.9503 5.03515 32.2689 6.02198C32.4879 6.69116 32.5775 7.37929 32.5875 8.05843Z" fill="black"/>
</svg>
