<svg width="106" height="125" viewBox="0 0 106 125" fill="none" xmlns="http://www.w3.org/2000/svg">
<path id="Vector" d="M46.276 124.122C45.1524 124.122 44.0288 124.123 42.9052 124.121C42.0282 124.119 41.1602 124.037 40.312 123.806C40.0734 123.74 39.8417 123.644 39.61 123.551C39.2561 123.407 38.9946 123.166 38.748 122.864C37.4345 121.252 36.0752 119.681 34.4595 118.357C33.5643 117.634 32.6028 116.997 31.5879 116.456C30.9306 116.099 30.2565 115.767 29.6112 115.387C28.8813 114.955 28.1724 114.484 27.4585 114.025C27.2715 113.904 27.1204 113.728 26.8738 113.714C26.8072 113.71 26.7346 113.655 26.6829 113.605C26.2285 113.176 25.7781 112.742 25.3256 112.31C24.1593 110.568 23.9843 109.169 24.9707 107.311C25.0989 107.07 25.2739 106.852 25.434 106.629C25.9183 105.954 26.2941 105.223 26.6034 104.454C26.6769 104.271 26.7923 104.103 26.8897 103.929C27.4048 103.012 27.9238 102.099 28.4309 101.178C28.5641 100.937 28.6795 100.685 28.7769 100.428C29.8428 97.622 29.3636 95.0697 27.5141 92.7471C27.3421 92.5324 27.1423 92.3387 26.9921 92.11C26.7545 91.7495 26.4164 91.5657 26.0197 91.4619C25.39 91.3019 24.7456 91.2075 24.0967 91.1803C23.8221 91.168 23.5472 91.1627 23.2724 91.1643C21.9002 91.1593 20.5261 91.1623 19.1529 91.1493C18.78 91.1453 18.4072 91.0984 18.0353 91.0675C17.389 91.0126 16.7427 90.9577 16.0964 90.8977C15.8478 90.8748 15.5793 90.8917 15.3596 90.7978C14.9977 90.6421 14.7888 90.8208 14.581 91.0465C14.4299 91.2123 14.3056 91.403 14.1535 91.5688C13.6069 92.158 12.9465 92.6292 12.2126 92.9538C11.1864 93.4191 10.1275 93.7956 9.0029 93.9304C8.21739 94.0242 7.45773 93.9054 6.7796 93.469C6.45645 93.2613 6.12832 93.1046 5.73954 93.0906C5.64111 93.0876 5.54367 93.0566 5.44622 93.0337C5.07932 92.9438 4.81682 92.7381 4.71738 92.3576C4.69253 92.2608 4.66866 92.1619 4.63287 92.07C4.56327 91.8903 4.42903 91.7785 4.23514 91.7804C3.91198 91.7844 3.58883 91.8014 3.26568 91.8214C3.04196 91.8354 2.81923 91.8863 2.5965 91.8793C2.17789 91.8683 1.97306 91.5807 2.06951 91.1673C2.09337 91.0704 2.1411 90.9796 2.16497 90.8827C2.21369 90.693 2.16895 90.6121 1.97605 90.5422C1.81199 90.4813 1.63997 90.4404 1.48088 90.3725C1.25318 90.2756 1.21539 89.983 1.4063 89.8143C1.49976 89.7324 1.60516 89.6655 1.70659 89.5906C2.40758 89.0683 3.11653 88.5561 3.80857 88.0208C4.24409 87.6843 4.66667 87.3328 5.16184 87.0851C5.2752 87.0282 5.28315 86.9374 5.17974 86.8615C4.48968 86.3602 3.87718 85.7701 3.27363 85.1699C2.77564 84.6757 2.34742 84.1152 2.0009 83.5043C1.05947 81.8741 0.444077 80.075 0.189253 78.2079C-0.0503781 76.4424 0.0560183 74.7079 0.582013 73.0044C1.07022 71.4256 1.55346 69.8449 2.06057 68.2721C2.50105 66.9051 3.17122 65.6469 3.9269 64.4307C4.29579 63.8355 4.64778 63.2274 4.96696 62.6053C6.41866 59.7833 8.20247 57.191 10.2677 54.7914C13.6603 50.8491 17.6306 47.5927 22.0116 44.8277C27.1105 41.6103 32.5683 39.1698 38.2786 37.2835C41.9034 36.0849 45.6 35.118 49.3464 34.3887C50.1299 34.2369 50.9155 34.0941 51.699 33.9443C51.8461 33.9173 51.9923 33.8844 52.1375 33.8475C52.8852 33.6597 53.6349 33.477 54.3826 33.2922C55.4307 33.0336 56.3812 32.5174 57.3079 31.9692C58.34 31.359 59.3721 30.7509 60.4609 30.2436C61.8649 29.5905 63.3236 29.228 64.8807 29.285C65.5797 29.3099 66.2787 29.279 66.9777 29.2929C67.4957 29.3039 67.9521 29.1812 68.3767 28.8646C69.0996 28.3274 69.893 27.899 70.6964 27.4925C71.3002 27.1909 71.8713 26.8275 72.4007 26.4081C72.6612 26.1994 72.7577 25.9647 72.706 25.6262C72.53 24.4559 72.5787 23.2756 72.5936 22.0973C72.6016 21.4053 72.8283 20.7682 73.2011 20.188C73.3911 19.8934 73.5999 19.6108 73.7938 19.3193C73.926 19.1205 73.918 19.0297 73.7271 18.8759C73.535 18.7165 73.3309 18.5723 73.1166 18.4445C72.529 18.107 71.9105 17.8444 71.2433 17.7096C71.0473 17.6724 70.8534 17.6244 70.6626 17.5658C69.9835 17.3481 69.373 17.0196 68.9504 16.4194C68.5915 15.9082 68.2285 15.3979 67.8964 14.8676C67.2973 13.9136 66.7126 12.9505 66.1425 11.9788C65.088 10.1773 63.66 8.62474 61.9554 7.42632C60.6662 6.51103 59.5902 5.32576 58.8014 3.9523C58.3987 3.26029 57.997 2.56529 57.464 1.96016C57.4008 1.88304 57.363 1.78812 57.3557 1.68851C57.3328 1.26113 57.6818 0.713895 58.0875 0.563111C58.5548 0.38936 59.0321 0.240589 59.5412 0.242586C59.916 0.244584 60.2909 0.247602 60.6648 0.228629C61.7406 0.173708 62.7459 0.448275 63.7004 0.911611C64.644 1.37095 65.5598 1.88321 66.3543 2.5892C66.7082 2.90475 67.0891 3.19236 67.45 3.50092C68.1758 4.12003 68.8192 4.81702 69.37 5.5999C69.9596 6.4397 70.5324 7.29446 71.1668 8.09931C72.0507 9.21971 72.9754 10.3072 73.8992 11.3936C74.803 12.4561 75.9375 13.232 77.1227 13.938C77.2928 14.0398 77.4807 14.1187 77.6686 14.1816C78.0842 14.3214 78.4969 14.3444 78.9026 14.1257C79.2546 13.937 79.6185 13.7712 79.9715 13.5855C80.9876 13.0482 82.0039 12.515 83.0708 12.0846C84.0323 11.6962 85.0216 11.4655 86.0647 11.5364C86.2585 11.5494 86.4584 11.5873 86.6394 11.6562C88.0105 12.1845 89.4016 12.2833 90.8185 11.8719C91.6328 11.6363 92.4432 11.3856 93.2586 11.153C93.5936 11.0571 93.9416 11.0031 94.2757 10.9053C94.8892 10.7265 95.5107 10.7306 96.1331 10.8075C97.8185 11.0182 99.485 11.3237 101.111 11.827C102.573 12.2794 103.741 13.1282 104.563 14.4373C104.603 14.5002 104.64 14.5661 104.682 14.628C105.007 15.0863 104.874 15.5337 104.632 15.9651C104.599 16.025 104.439 16.0719 104.374 16.0429C104.103 15.9192 103.839 15.7784 103.586 15.6216C103.225 15.3979 102.88 15.1502 102.519 14.9266C102.132 14.6879 101.7 14.5551 101.258 14.4672C100.962 14.4024 100.653 14.4419 100.383 14.579C100.3 14.6312 100.232 14.705 100.188 14.7927C100.114 14.9215 100.206 15.1283 100.343 15.1582C100.438 15.1852 100.536 15.1947 100.634 15.1862C101.184 15.0963 101.674 15.275 102.136 15.5367C102.483 15.7324 102.813 15.96 103.142 16.1867C103.619 16.5163 104.101 16.8258 104.71 16.8288C104.886 16.8288 104.984 16.9477 105.038 17.0925C105.306 17.7995 105.492 18.5234 105.463 19.2903C105.454 19.525 105.37 19.7157 105.258 19.9184C104.38 21.5101 103.084 22.7174 101.707 23.8508C101.321 24.1673 100.893 24.433 100.51 24.7535C100.072 25.122 99.661 25.5244 99.2384 25.9128C99.2225 26.3173 98.8765 26.474 98.6348 26.6997C98.3817 26.9418 98.1075 27.1607 97.8155 27.3538C97.201 27.7482 96.675 28.2485 96.1272 28.7228C95.6449 29.1412 95.3138 29.6714 95.0762 30.2586C94.8316 30.8607 94.6039 31.4719 94.3692 32.079C93.3968 34.5914 91.9371 36.7853 90.0787 38.7225C89.3641 39.4584 88.6698 40.2139 87.9966 40.9882C87.0639 42.0747 86.2943 43.2779 85.6351 44.5491C85.2423 45.307 84.9371 46.0919 84.8108 46.9517C84.7412 47.422 84.6994 47.8804 84.7014 48.3547C84.7074 49.4831 84.596 50.6044 84.4747 51.7258C84.3097 53.2586 83.911 54.7265 83.3601 56.1575C82.806 57.5826 82.1293 58.9565 81.3377 60.2636C80.3377 61.9436 79.1882 63.5292 77.9033 65.0008C77.5075 65.4522 77.1367 65.9265 76.7399 66.3768C76.3263 66.8462 75.8977 67.3015 75.4682 67.7558C75.331 67.9006 75.1888 68.0585 75.0178 68.1493C74.5196 68.4139 74.1597 68.8263 73.7768 69.2218C72.8601 70.1674 71.8041 70.9093 70.5761 71.3986C69.8582 71.6852 69.1453 71.9878 68.4354 72.2934C68.2305 72.3822 68.0277 72.4891 67.8477 72.6189C67.7138 72.7113 67.6 72.83 67.513 72.9678C67.426 73.1056 67.3677 73.2597 67.3416 73.4208C67.2909 73.7153 67.1954 74.0009 67.1149 74.2885C66.92 74.9875 66.6605 75.6755 66.5422 76.3875C66.397 77.2723 66.3274 78.1669 66.392 79.0786C66.5114 80.7462 66.9479 82.332 67.4381 83.9127C67.7125 84.7964 68.0018 85.6792 68.153 86.5959C68.2345 87.0901 68.319 87.5845 68.3737 88.0818C68.4473 88.7398 68.3419 89.3879 68.15 90.012C67.8696 90.9207 67.5594 91.8194 67.2422 92.7161C67.0165 93.3532 66.7341 93.9703 66.5163 94.6094C65.9744 96.2041 65.2048 97.697 64.5178 99.2258C64.1479 100.051 63.6507 100.806 63.1118 101.53C62.9291 101.768 62.721 101.984 62.4913 102.176C61.7754 102.788 60.7811 102.734 60.1179 102.303C59.6752 102.017 59.3103 101.624 59.056 101.161C58.6605 100.462 58.4175 99.686 58.343 98.8853C58.1959 97.3015 58.3858 95.7837 59.1663 94.3707C59.3483 94.0432 59.5094 93.7027 59.6834 93.3701C59.928 92.9048 60.1746 92.4405 60.4231 91.9762C60.8845 91.1114 61.1788 90.1778 61.5109 89.2601C61.7555 88.584 61.7078 87.934 61.3508 87.3049C61.154 86.9564 60.978 86.5959 60.794 86.2394C59.9108 84.5208 59.3306 82.6616 59.0788 80.7443C58.9119 79.4522 58.7724 78.1568 58.6602 76.8588C58.5827 75.9871 58.339 75.2012 57.7763 74.5112C57.0255 73.5895 56.5055 72.534 56.1326 71.4086C56.066 71.2079 55.9726 71.117 55.7866 71.0841C55.3451 71.0062 54.9057 70.8993 54.4612 70.8554C53.6667 70.7765 52.8703 70.7206 52.0728 70.6807C50.9513 70.6247 49.8297 70.5908 48.7071 70.5488C48.5822 70.5434 48.4571 70.5434 48.3322 70.5488C47.6193 70.5838 47.5467 70.6457 47.3727 71.3337C47.3548 71.4066 47.323 71.4766 47.311 71.5505C47.0615 73.1132 46.3118 74.4263 45.2836 75.5917C44.3728 76.6232 43.4402 77.6357 42.5164 78.6562C41.9234 79.3011 41.3871 79.9964 40.9136 80.7343C40.6332 81.1776 40.3608 81.633 40.146 82.1103C39.6543 83.1851 39.4613 84.3734 39.5872 85.5494C39.7194 86.8266 40.0515 88.0588 40.2961 89.312C40.4691 90.1967 40.659 91.0764 40.7346 91.9791C40.804 92.8295 40.6967 93.6851 40.4194 94.4916C40.2174 95.112 39.9392 95.7047 39.5911 96.256C38.7649 97.5402 37.9257 98.8154 37.0914 100.096C36.8051 100.536 36.5137 100.974 36.2403 101.423C35.6059 102.46 35.2132 103.591 34.9706 104.779C34.9308 104.972 34.8701 105.156 34.9666 105.363C35.0262 105.491 35.0223 105.656 35.0242 105.804C35.0431 107.362 35.5482 108.754 36.471 109.992C36.814 110.453 37.1978 110.885 37.5836 111.31C38.047 111.821 38.6177 112.175 39.2809 112.368C39.8079 112.521 40.3319 112.689 40.8679 112.802C41.9497 113.03 42.8704 113.552 43.6947 114.271C44.4305 114.912 45.1564 115.565 45.7828 116.318C46.2054 116.828 46.6916 117.247 47.322 117.479C47.3657 117.495 47.4015 117.533 47.4413 117.561C47.3995 117.576 47.3598 117.6 47.317 117.605C47.1679 117.622 47.0167 117.618 46.8706 117.649C46.7501 117.677 46.6345 117.723 46.5275 117.785C46.4082 117.853 46.3485 117.986 46.4042 118.106C46.451 118.207 46.5623 118.341 46.6518 118.345C46.9233 118.361 47.1987 118.333 47.4701 118.3C48.2896 118.203 49.1195 118.24 49.9271 118.41C50.4698 118.513 50.9795 118.747 51.4126 119.091C51.7815 119.39 52.1524 119.688 52.5392 119.962C52.7609 120.119 53.0025 120.275 53.2591 120.347C54.0167 120.56 54.6879 120.932 55.3312 121.371C55.4138 121.428 55.4903 121.502 55.5818 121.534C55.9905 121.679 56.0531 122.03 56.0561 122.383C56.0611 122.791 55.8344 123.097 55.4853 123.291C55.3352 123.376 55.1592 123.417 54.9912 123.46C54.8695 123.488 54.7452 123.504 54.6203 123.505C54.2216 123.516 53.8059 123.594 53.4311 123.503C53.0672 123.415 52.917 122.982 52.6466 122.726C52.2657 122.365 51.8988 121.987 51.4932 121.656C50.9254 121.19 50.2851 120.86 49.5403 120.772C49.1565 120.727 48.8333 120.551 48.5291 120.318C48.1726 120.043 47.8072 119.78 47.4333 119.53C46.747 119.063 45.9448 118.797 45.1166 118.762C44.7238 118.746 44.3231 118.826 43.9324 118.895C43.7971 118.919 43.6649 119.023 43.5555 119.119C43.5081 119.161 43.4753 119.217 43.4618 119.279C43.4484 119.341 43.4551 119.405 43.4809 119.463C43.5366 119.603 43.6967 119.698 43.8419 119.671C43.9145 119.658 43.9851 119.631 44.0556 119.608C45.0291 119.28 45.9319 119.513 46.789 119.986C47.1808 120.202 47.5537 120.464 47.9027 120.744C48.3819 121.127 48.888 121.423 49.5075 121.494C50.0176 121.553 50.463 121.78 50.8657 122.084C51.1849 122.325 51.4961 122.58 51.7765 122.863C51.9595 123.048 52.228 123.18 52.2657 123.486C51.9873 123.64 51.7248 123.846 51.4275 123.934C51.0994 124.032 50.7325 124.085 50.3924 124.051C49.3166 123.943 48.2477 124.089 47.1748 124.08C46.8755 124.078 46.5762 124.08 46.276 124.08V124.122ZM87.9101 20.2589C88.8478 20.2219 89.682 19.7716 90.2955 18.9438C90.7558 18.3227 91.1347 17.6427 91.6895 17.0905C91.729 17.0491 91.7576 16.9984 91.7728 16.9431C91.788 16.8879 91.7892 16.8296 91.7764 16.7738C91.7635 16.7179 91.7371 16.6661 91.6993 16.6231C91.6616 16.5801 91.6138 16.5471 91.5602 16.5272C91.1009 16.3655 90.7409 16.0599 90.3581 15.7833C90.1972 15.6652 90.0254 15.5629 89.8451 15.4778C89.3847 15.2641 88.9134 15.1732 88.3953 15.2721C87.745 15.3949 87.1634 15.6555 86.6036 15.99C86.1505 16.2598 85.781 16.6508 85.5367 17.1194C85.2682 17.6257 85.0703 18.1689 84.6696 18.6013C84.5314 18.7511 84.595 19.0167 84.7611 19.1345C84.8416 19.1914 84.9311 19.2593 85.0226 19.2723C85.4333 19.3302 85.7514 19.5759 86.0994 19.7656C86.6314 20.0532 87.1912 20.2589 87.9101 20.2589ZM63.3186 5.35629C63.1416 5.36927 63.0591 5.35525 62.9954 5.38421C62.9074 5.42218 62.8297 5.48075 62.7687 5.55498C62.7041 5.63986 62.7658 5.8116 62.8811 5.87551C63.0332 5.95939 63.1883 6.04228 63.3524 6.0962C65.176 6.69235 66.6973 7.73888 67.98 9.16084C69.0041 10.2962 69.896 11.5344 70.8009 12.7627C71.5426 13.7702 72.2794 14.7808 73.053 15.7623C73.9737 16.9307 75.1589 17.7405 76.5679 18.2109C76.7518 18.2718 76.9537 18.2967 77.1486 18.3027C77.2808 18.3057 77.3723 18.1969 77.3982 18.0631C77.424 17.9342 77.4011 17.7974 77.2838 17.7315C77.1327 17.6476 76.9656 17.5927 76.8026 17.5338C75.5278 17.0764 74.448 16.3405 73.5949 15.281C73.3419 14.9712 73.0956 14.6558 72.8561 14.3354C71.9065 13.0462 70.9719 11.7461 70.0104 10.467C69.198 9.3865 68.319 8.36197 67.2899 7.47624C66.3324 6.65242 65.2486 6.04326 64.0852 5.57394C63.8108 5.4611 63.5135 5.41022 63.3186 5.35629Z" fill="black"/>
</svg>
